<?xml version="1.0" encoding="UTF-8"?>
<svg width="803px" height="412px" viewBox="0 0 803 412" version="1.1" xmlns="http://www.w3.org/2000/svg" xmlns:xlink="http://www.w3.org/1999/xlink">
    <title>homepage-hero-group@1.5x</title>
    <defs>
        <polygon id="path-1" points="-2.07046772e-14 0.107450328 148.557476 0.107450328 148.557476 222.750689 -2.07046772e-14 222.750689"></polygon>
    </defs>
    <g id="Page-1" stroke="none" stroke-width="1" fill="none" fill-rule="evenodd">
        <g id="01" transform="translate(-213.000000, -401.000000)">
            <g id="homepage-hero-group" transform="translate(213.000000, 401.000000)">
                <rect id="Rectangle" fill="#FFFFFF" x="0" y="0" width="803" height="412"></rect>
                <g id="homepage-hero" transform="translate(0.000000, 29.000000)">
                    <g id="Group-7" transform="translate(0.000000, 41.000000)">
                        <polyline id="Fill-575" fill="#9B6D5C" transform="translate(137.440629, 309.622397) scale(-1, 1) rotate(-12.000000) translate(-137.440629, -309.622397) " points="144.717023 304.368976 143.576306 317.627285 130.164235 317.627984 132.474925 301.61681 144.717023 304.368976"></polyline>
                        <polyline id="Fill-576" fill="#9B6D5C" transform="translate(103.971185, 308.166587) scale(-1, 1) rotate(-3.000000) translate(-103.971185, -308.166587) " points="111.247247 302.914872 110.113926 316.172032 96.6951228 316.172212 99.0063532 300.160962 111.247247 302.914872"></polyline>
                        <g id="Group-2" transform="translate(122.000000, 156.500000) scale(-1, 1) translate(-122.000000, -156.500000) ">
                            <g id="Group" transform="translate(72.848107, 0.000000)">
                                <g id="Group-99" transform="translate(21.843083, 89.083850)">
                                    <mask id="mask-2" fill="white">
                                        <use xlink:href="#path-1"></use>
                                    </mask>
                                    <g id="Clip-97"></g>
                                    <path d="M60.9291031,114.62144 C59.9022081,118.087568 57.3911076,121.862018 54.7831366,123.900494 L54.4124631,215.47865 L39.2913363,215.47865 L39.3413742,124.970207 L21.3850883,123.036443 C21.3850883,123.036443 14.5103686,170.035011 14.5007842,182.733997 C14.9420068,189.85857 18.671618,215.47865 18.671618,215.47865 L4.58147717,215.47865 C4.58147717,215.47865 1.95349214e-14,189.920166 1.95349214e-14,182.733997 C1.95349214e-14,162.715385 6.84596664,95.8155791 6.84596664,95.8155791 L60.9291031,95.8155791 L60.9291031,114.62144 Z" id="Fill-98" fill="#2B72B6" mask="url(#mask-2)"></path>
                                </g>
                                <path d="M83.4567833,122.831808 L100.548424,116.761207 C99.2059295,100.217963 82.8450962,80.7099109 56.7273911,80.7099109 C30.6086592,80.7099109 14.3987793,100.217963 13.0579968,116.761207 L28.3467518,122.831808 L25.2660668,199.872325 L83.4567833,201.324957 L83.4567833,122.831808" id="Fill-101" fill="#373737"></path>
                                <path d="M67.2992751,81.8182918 C65.8239693,81.4671961 64.9760963,81.3214196 63.1564384,81.0668239 L62.2113527,71.199188 L51.6726716,70.8169523 L51.2735518,80.9439746 C49.1081725,81.1599019 47.9416198,81.403205 46.215067,81.8227404 C46.1719374,82.3486995 46.2143824,82.8000593 46.2356049,83.3427861 C46.4930133,89.819577 51.4159479,94.8365492 57.2288582,94.5477337 C63.0414261,94.2589181 67.5457299,88.7751872 67.2869524,82.2973697 C67.2828448,82.190946 67.3064634,81.9230045 67.2992751,81.8182918" id="Fill-102" fill="#9B6D5C"></path>
                                <path d="M84.3655853,194.17164 L81.9335557,192.837066 C81.347541,192.549277 74.0244104,189.115999 67.9838718,194.003278 L60.4471471,184.692741 C69.5457791,177.33171 79.5888121,179.305853 84.486759,180.981941 C89.9084222,178.176598 104.032336,169.719846 106.846028,156.564025 C105.610331,150.944784 92.2175668,128.875034 86.5840208,121.72069 L98.7982522,117.382639 C99.9624089,118.711396 117.953609,145.792985 118.864123,156.324828 L118.929159,157.109147 L118.79224,157.884569 C114.677814,181.086996 88.1647545,192.562965 87.0379084,193.039647 L84.3655853,194.17164" id="Fill-103" fill="#9B6D5C"></path>
                                <path d="M17.660455,43.1731311 C17.6824472,47.7661194 21.4152106,51.4731557 25.9989275,51.4506732 C30.5829868,51.4307231 34.2815203,47.6901513 34.261407,43.0964787 C34.2401022,38.5034905 30.5069966,34.7974807 25.9219104,34.8186064 C21.3385357,34.8402556 17.6400023,38.5808273 17.660455,43.1731311" id="Fill-104" fill="#9B6D5C"></path>
                                <path d="M24.8453754,42.7101366 C24.8340863,60.6194371 39.0100294,75.1481587 56.3121832,75.1594586 C73.6157062,75.1714282 87.8104758,60.6618697 87.8231408,42.7518848 L87.4479818,33.923848 C87.4606469,16.0138631 73.6646549,1.48616807 56.3625011,1.47452591 C39.0589781,1.46255638 25.2441597,15.9717726 25.2321793,33.8820998 L24.8453754,42.7101366" id="Fill-105" fill="#9B6D5C"></path>
                                <path d="M79.0372727,44.472801 C79.0596189,49.0657893 82.7916976,52.7721412 87.3754146,52.7510155 C91.9587893,52.7297086 95.657665,48.9901634 95.6368728,44.3961486 C95.61522,39.8031604 91.882799,36.097835 87.2983975,36.1186214 C82.7146805,36.139241 79.0154624,39.8804972 79.0372727,44.472801" id="Fill-106" fill="#9B6D5C"></path>
                                <path d="M56.3121832,75.1594586 C73.6157062,75.1714282 87.8104758,60.6618697 87.8231408,42.7518848 L87.8238254,41.2687965 C87.8156102,41.0535537 87.811845,40.8400218 87.8156102,40.6288853 L83.0080302,40.8540519 C83.0080302,40.8540519 83.9120401,57.4859255 70.2207914,56.8508051 C66.2203508,56.6653335 60.9506679,51.4509128 54.0064617,51.351333 C46.7391258,51.2469625 42.1009834,56.5435108 37.8763374,56.5366668 C26.5294899,56.5178459 28.321764,40.0741816 28.321764,40.0741816 L24.8970692,39.8123997 C24.8950154,40.0779457 24.8768736,40.3537577 24.8474359,40.6343605 L24.8453754,42.7101366 C24.8340863,60.6194371 39.0100294,75.1481587 56.3121832,75.1594586" id="Fill-107" fill="#77564D"></path>
                                <path d="M87.6365882,27.9819133 C87.0088131,18.0944299 78.9548756,0.993060038 56.9218166,0 C34.9709091,0.757627472 25.8794654,17.2906056 25.1476316,27.1715872 C24.9124726,30.3533489 24.8970692,39.8123997 24.8970692,39.8123997 L28.321764,40.0741816 C28.3224486,40.0741816 27.027534,10.9482987 44.5590277,15.9820386 C48.4543827,17.1006855 53.1705691,18.2357579 56.7308141,18.2987224 C60.5645554,18.2901675 63.0780521,17.6683928 66.9847029,16.5901253 C84.5678837,11.7404882 83.0076879,40.8540519 83.0080302,40.8540519 L87.8247468,40.6288853 C87.8247468,40.6288853 87.8392288,31.1660703 87.6365882,27.9819133" id="Fill-108" fill="#4F3934"></path>
                                <path d="M42.5459712,48.7985322 C42.0013746,50.7699378 40.0509587,51.952918 38.1864596,51.4379092 C36.3226452,50.9246115 35.2536475,48.9100889 35.7958481,46.9390256 C36.340787,44.9669357 38.2915452,43.7846399 40.1570711,44.2982798 C42.0198587,44.8119197 43.089541,46.8271267 42.5459712,48.7985322" id="Fill-109" fill="#000000"></path>
                                <path d="M71.4054859,48.7985322 C70.8615738,50.7699378 68.9108156,51.952918 67.0466589,51.4379092 C65.1818176,50.9246115 64.1128199,48.9100889 64.6557051,46.9390256 C65.2003017,44.9669357 67.1520868,43.7846399 69.0162435,44.2982798 C70.880058,44.8119197 71.9497402,46.8271267 71.4054859,48.7985322" id="Fill-110" fill="#000000"></path>
                            </g>
                            <path d="M90.8554562,194.234738 L88.4318904,192.894552 C87.8479151,192.605553 80.5502703,189.157837 74.5307537,194.065669 L67.0202581,184.715979 C76.0872253,177.323992 86.095307,179.306437 90.9762081,180.989573 C96.3790031,178.172433 110.453763,169.680119 113.257664,156.468974 C112.026267,150.826102 98.6801115,128.663543 93.0661712,121.479113 L105.237895,117.12282 C106.398,118.457164 124.326588,145.652639 125.233933,156.228771 L125.298743,157.016388 L125.162301,157.795071 C121.062193,181.09507 94.6414037,192.619298 93.5184792,193.097985 L90.8554562,194.234738" id="Fill-103" fill="#9B6D5C" transform="translate(96.159501, 155.678779) scale(-1, 1) translate(-96.159501, -155.678779) "></path>
                            <g id="Group-114" transform="translate(0.000000, 57.470203)">
                                <path d="M136.881855,1.1404551 L115.903173,0.290596732 C115.903173,0.290596732 118.910351,6.86706122 124.120782,7.82417994 C131.198588,9.12329812 136.51961,2.77917394 136.881855,1.1404551" id="Fill-111" fill="#FFFFFF"></path>
                                <polygon id="Fill-113" fill="#B2B2B2" points="0.277675128 254.594264 9.98123962 254.594264 9.98123962 230.650876 0.277675128 230.650876"></polygon>
                            </g>
                        </g>
                        <path d="M113.827466,308 C116.620816,308.23563 118.439742,310.709747 118.439742,313.787665 L129.02127,314.56819 L131.966197,328.625 L92.1014085,328.625 L92.1014085,324.98746 C92.1014085,324.98746 109.648267,314.980543 112.607631,313.419493 L113.827466,308" id="Fill-579" fill="#373737" transform="translate(112.033803, 318.312500) scale(-1, 1) translate(-112.033803, -318.312500) "></path>
                        <path d="M148.333014,309.375 C151.140748,309.605905 152.973776,312.108613 152.973776,315.22955 L164.059232,315.899919 L167.019718,330 L126.467606,330 L126.467606,326.551327 C126.467606,326.551327 144.339631,316.428765 147.321939,314.857124 L148.333014,309.375" id="Fill-582" fill="#373737" transform="translate(146.743662, 319.687500) scale(-1, 1) translate(-146.743662, -319.687500) "></path>
                    </g>
                    <polyline id="Fill-513" fill="#FFFFFF" points="540 303.524501 535.766973 306 524 284.482759 528.226018 282 540 303.524501"></polyline>
                    <polygon id="Fill-537" fill="#B2B2B2" points="677 319 687 319 687 280 677 280"></polygon>
                    <path d="M650,273 C650,278.519528 654.397107,283 659.82117,283 L706.17883,283 C711.602893,283 716,278.519528 716,273 C716,267.473102 711.602893,263 706.17883,263 L659.82117,263 C654.397107,263 650,267.473102 650,273" id="Fill-538" fill="#373737"></path>
                    <polygon id="Fill-539" fill="#373737" points="674 348 689 348 689 311 674 311"></polygon>
                    <polyline id="Fill-540" fill="#B2B2B2" points="690 332 738 342.332598 738 348 690 342.000882 690 332"></polyline>
                    <polygon id="Fill-541" fill="#B2B2B2" points="678 348 685 348 685 332 678 332"></polygon>
                    <path d="M730,357.003434 C730,360.314253 732.684211,363 736,363 C739.315789,363 742,360.314253 742,357.003434 C742,353.685747 739.315789,351 736,351 C732.684211,351 730,353.685747 730,357.003434" id="Fill-542" fill="#373737"></path>
                    <polyline id="Fill-543" fill="#B2B2B2" points="674 332 626 342.332598 626 348 674 342.000882 674 332"></polyline>
                    <path d="M676,357.003434 C676,360.314253 678.685747,363 681.996566,363 C685.314253,363 688,360.314253 688,357.003434 C688,353.685747 685.314253,351 681.996566,351 C678.685747,351 676,353.685747 676,357.003434" id="Fill-544" fill="#373737"></path>
                    <path d="M596.316489,273 L694.470065,273 C701.77852,273 679.65622,253.160267 679.729158,245.932678 C680.137615,204.82215 696.621756,142.484192 696.789515,141.862619 C697.679366,138.516246 695.666259,135.090368 692.289198,134.208602 C688.919432,133.326837 685.462138,135.321651 684.572286,138.660797 C684.528523,138.819804 680.261611,154.901191 676.001992,175.947931 C670.269012,204.337902 667.263939,227.842022 667.088886,245.809809 C667.008653,253.897481 660.393116,260.481815 652.34798,260.481815 L596.316489,260.481815 C592.830021,260.481815 590,263.278892 590,266.740908 C590,270.195695 592.830021,273 596.316489,273" id="Fill-545" fill="#5454B5"></path>
                    <polyline id="Fill-546" fill="#5454B5" points="767 134 691.098558 134.210298 665 263 746.634615 260.345888 767 134"></polyline>
                    <path d="M673.316489,273 L729.34798,273 C736.649141,273 743.51267,270.174013 748.669435,265.049652 C753.797024,259.954201 756.65622,253.160267 756.729158,245.932678 C757.137615,204.82215 773.621756,142.484192 773.789515,141.862619 C774.679366,138.516246 772.666259,135.090368 769.289198,134.208602 C765.919432,133.326837 762.462138,135.321651 761.572286,138.660797 C761.528523,138.819804 757.261611,154.901191 753.009286,175.947931 C747.269012,204.337902 744.271233,227.842022 744.088886,245.809809 C744.008653,253.897481 737.393116,260.481815 729.34798,260.481815 L673.316489,260.481815 C669.830021,260.481815 667,263.278892 667,266.740908 C667,270.195695 669.830021,273 673.316489,273" id="Fill-547" fill="#6363CE"></path>
                    <polygon id="Fill-548" fill="#373737" points="676 285 688 285 688 282 676 282"></polygon>
                    <path d="M615.165146,218 C616.350716,218 617.536286,217.97805 618.750772,217.926833 C634.654759,217.28296 647.392406,208.144365 655.597417,191.498804 C661.481892,179.557901 662.942167,167.90235 663,167.404812 L651.657566,166.007317 L657.332398,166.709723 L651.657566,166 C651.643108,166.102434 650.320185,176.411707 645.245368,186.589278 C638.927148,199.247221 629.861875,205.898129 618.29534,206.373716 C587.513897,207.624877 567.908619,189.794006 567.720663,189.611088 L560,198.142395 C560.903636,198.976502 581.817378,218 615.165146,218" id="Fill-549" fill="#8C6053"></path>
                    <path d="M648,85.3284897 C647.905384,117.083438 673.573542,142.90486 705.32849,143 C737.083438,143.094616 762.90486,117.426458 763,85.6715103 C763.094616,53.9165621 737.433757,28.0951402 705.67151,28 C673.916562,27.9053841 648.09514,53.5735415 648,85.3284897" id="Fill-550" fill="#373737"></path>
                    <path d="M661.084079,99.9666577 C659.842505,116.916386 672.497848,131.667033 689.342596,132.916344 C706.187344,134.15835 720.84663,121.424137 722.080944,104.474409 L722.915921,93.0333423 C724.157495,76.0836143 711.502152,61.3329674 694.657404,60.0836556 C677.812656,58.8416496 663.15337,71.5758634 661.919056,88.5255913 L661.084079,99.9666577" id="Fill-551" fill="#9B6D5C"></path>
                    <path d="M715.022132,103.4173 C714.696504,107.817727 718.002337,111.653091 722.412475,111.978002 C726.815533,112.302913 730.652282,108.990232 730.97791,104.582742 C731.303538,100.175252 727.990626,96.3398875 723.587567,96.0220396 C719.17743,95.6971285 715.340681,99.0027462 715.022132,103.4173" id="Fill-552" fill="#9B6D5C"></path>
                    <path d="M707,62.666829 L698.210664,75 C696.710403,74.2912811 694.602718,73.5021919 693,72.9761325 L700.025614,60 C702.235755,60.6210424 705.016728,61.6366293 707,62.666829" id="Fill-553" fill="#373737"></path>
                    <path d="M715,68.2246094 L705.19285,78 C703.965193,77.1523438 701.354657,75.5595703 700,74.8554687 L709.546096,64 C711.331138,65.1347656 713.5254,66.7822266 715,68.2246094" id="Fill-554" fill="#373737"></path>
                    <path d="M698,59.5312667 L692.314574,73 C691.044733,72.6258685 689.320346,72.3190807 688,72.0721539 C688.909091,69.2586852 691.189033,63.5419562 692.66811,59 C694.486291,59.0299305 696.268398,59.2169963 698,59.5312667" id="Fill-555" fill="#373737"></path>
                    <path d="M690,59 L686.286892,71 C686.146775,70.978972 686.006658,70.9579439 685.866541,70.9369159 C684.636622,70.796729 683.461194,70.7126168 682.332472,70.6915888 C682.425883,67.9509346 681.888767,63.7313084 682.0211,59.953271 C684.029448,59.567757 687.812614,59.1191589 690,59" id="Fill-556" fill="#373737"></path>
                    <path d="M721,77.0226415 L709.295509,83 C708.267021,81.9132075 707.166103,80.8867925 706,79.9207547 L717.414775,71 C718.725736,72.7132075 720.072912,75.0603774 721,77.0226415" id="Fill-557" fill="#373737"></path>
                    <path d="M723,88.1224576 C722.978365,94.4254237 720.814904,100.245763 717.158654,105 C717.245192,104.113983 717.302885,103.213559 717.302885,102.305932 C717.317308,97.7605932 715.983173,93.0567797 714,89.2029661 L723,88 L723,88.1224576" id="Fill-558" fill="#373737"></path>
                    <path d="M723,85.2395833 L713.615847,88 C712.706557,86.4002976 711.179235,84.3095238 710,82.8809524 L721.387432,78 C722.12623,80.1577381 722.786885,82.8958333 723,85.2395833" id="Fill-559" fill="#373737"></path>
                    <path d="M669,76.0038023 C666.669346,77.851711 664.001148,80.5437262 662,83 C662.450057,78.8250951 664.282434,74.1939163 666.243398,71 L669,76.0038023" id="Fill-560" fill="#373737"></path>
                    <path d="M672.29588,65 L675,73.102069 C673.172285,73.7924138 671.014981,74.8924138 669.464419,76 C668.715356,74.2096552 667.846442,72.1462069 667,70.1206897 C668.378277,68.3075862 670.453184,66.3806897 672.29588,65" id="Fill-561" fill="#373737"></path>
                    <path d="M680.4,60 L682,71.1716129 C680.047059,71.2490323 677.647059,71.5432258 675.968627,72 C675.419608,69.3987097 674.682353,65.9458065 674,62.7329032 C675.960784,61.6180645 678.101961,60.7045161 680.4,60" id="Fill-562" fill="#373737"></path>
                    <path d="M691.59375,59.004383 C691.73125,59.004383 691.8625,59.0181001 692,59.0181001 C690.71875,63.1812445 688.74375,68.4211824 687.95625,71 C687.51875,70.9108388 687.44375,70.8422532 687,70.7736676 L689.98125,59.0318172 C690.76875,58.9838073 690.78125,59.004383 691.59375,59.004383" id="Fill-563" fill="#9B6D5C"></path>
                    <path d="M682.657208,60 C682.516484,63.8701044 683.087659,68.1925587 682.988325,71 C682.33437,70.9856397 682.317814,70.9712794 681.688693,70.9928198 L680,60.6318538 C681.100962,60.3302872 681.490023,60.2154047 682.657208,60" id="Fill-564" fill="#9B6D5C"></path>
                    <path d="M674.595149,63 C675.08209,66.3173461 675.608209,69.882494 676,72.5683453 C675.541045,72.7442046 675.45709,72.7681855 675.020522,73 L673,64.4628297 C673.610075,63.8153477 673.91791,63.5515588 674.595149,63" id="Fill-565" fill="#9B6D5C"></path>
                    <path d="M666.993902,69 C667.682927,71.1094808 668.390244,73.258465 669,75.1230248 C668.536585,75.5496614 668.52439,75.5259594 668.091463,76 L666,70.8013544 C666.432927,69.8374718 666.469512,69.8769752 666.993902,69" id="Fill-566" fill="#9B6D5C"></path>
                    <path d="M700,60.56 L693.185448,74 C692.617569,73.7956757 692.574978,73.7956757 692,73.6216216 L697.593611,60 C698.629991,60.2043243 698.999113,60.2572973 700,60.56" id="Fill-567" fill="#9B6D5C"></path>
                    <path d="M709,64.3103058 L699.143709,76 C698.582781,75.698188 698.575497,75.7055493 698,75.4258211 L706.749007,63 C707.717881,63.5079275 708.096689,63.7066818 709,64.3103058" id="Fill-568" fill="#9B6D5C"></path>
                    <path d="M717,70.389404 L705.98544,79 C705.496214,78.5993377 705.510192,78.5847682 705,78.213245 L714.96622,68 C715.68608,68.7649007 716.364007,69.5589404 717,70.389404" id="Fill-569" fill="#9B6D5C"></path>
                    <path d="M722,79.0463862 L710.880925,84 C710.450867,83.4563107 710.46474,83.5016181 710,82.9805825 L721.209249,77 C721.646243,77.9816613 721.660116,78.0194175 722,79.0463862" id="Fill-570" fill="#9B6D5C"></path>
                    <path d="M723,88.0600375 L713.686567,89 C713.402985,88.5778612 713.328358,88.4990619 713,88.0881801 L722.858209,86 C722.947761,86.6754221 723,87.3677298 723,88.0600375" id="Fill-571" fill="#9B6D5C"></path>
                    <path d="M670,111 L696,112.342783 C696,112.342783 690.948205,121.573498 682.554673,120.971814 C674.253768,120.384805 670.242258,112.944467 670,111" id="Fill-572" fill="#FFFFFF"></path>
                    <path d="M672.745774,101.260008 C671.978776,103.357362 669.67778,104.489774 667.601881,103.795972 C665.53432,103.102171 664.483865,100.837347 665.250864,98.7399924 C666.017862,96.642638 668.318858,95.5102261 670.394757,96.2040278 C672.462318,96.8978294 673.52111,99.1626532 672.745774,101.260008" id="Fill-573" fill="#000000"></path>
                    <path d="M700.749136,102.260008 C699.982138,104.357362 697.681142,105.489774 695.605243,104.795972 C693.537682,104.094196 692.47889,101.837347 693.254226,99.7399924 C694.021224,97.642638 696.32222,96.5102261 698.398119,97.2040278 C700.46568,97.8978294 701.516135,100.162653 700.749136,102.260008" id="Fill-574" fill="#000000"></path>
                    <polyline id="Fill-575" fill="#9B6D5C" points="637 331.750903 635.903226 345 623 345 625.222222 329 637 331.750903"></polyline>
                    <polyline id="Fill-576" fill="#9B6D5C" points="610 323.752144 608.909836 337 596 337 598.223361 321 610 323.752144"></polyline>
                    <path d="M660.864464,233 L660.864464,237.244396 C660.864464,241.929863 658.229868,244.569053 653.855716,245.292119 L621.403267,245.292119 C612.099173,245.292119 606.108173,253.448301 605.169824,262.718004 C603.935534,274.923355 600.680183,300.086045 598.002279,320.36804 C597.785737,322.0094 613.073612,323 613.073612,323 L620.688678,262.638467 C620.75364,262.0094 620.782513,261.199566 621.403267,261.199566 L702.195141,261.199566 C709.651409,261.199566 715,255.046276 715,247.577007 L715,233 L660.864464,233" id="Fill-577" fill="#246591"></path>
                    <polygon id="Fill-578" fill="#FFFFFF" points="574 355 612 355 612 350 574 350"></polygon>
                    <path d="M595.799747,329 C598.602571,329.239914 600.427666,331.759015 600.427666,334.892895 L611.045084,335.687612 L614,350 L574,350 L574,346.296323 C574,346.296323 591.606373,336.107462 594.575774,334.518029 L595.799747,329" id="Fill-579" fill="#373737"></path>
                    <path d="M681.619341,232 L681.619341,236.260415 C681.619341,240.963565 679.398801,243.612716 675.001262,244.338511 L648.071778,244.338511 C638.725193,244.338511 632.455435,252.525475 631.512068,261.830164 C630.053478,276.150094 625.830099,308.31006 623,329.517782 L638.246253,332 L647.215491,261.706779 C647.215491,261.082595 647.447705,260.305995 648.071778,260.305995 L702.126676,260.305995 C709.622811,260.305995 715,254.129482 715,246.632022 L715,232 L681.619341,232" id="Fill-580" fill="#2B72B6"></path>
                    <polygon id="Fill-581" fill="#FFFFFF" points="599 362 640 362 640 357 599 357"></polygon>
                    <path d="M621.106906,337 C623.94565,337.235103 625.798924,339.783315 625.798924,342.960997 L637.006816,343.643554 L640,358 L599,358 L599,354.488624 C599,354.488624 617.069417,344.182015 620.084664,342.581798 L621.106906,337" id="Fill-582" fill="#373737"></path>
                    <path d="M714.658463,178.68996 L732,172.682236 C730.669971,156.304818 714.607308,137 688.679042,137 C662.750777,137 646.330029,156.304818 645,172.682236 L659.849559,178.68996 L659.849559,236 L714.658463,236 L714.658463,178.68996" id="Fill-583" fill="#72B4E1"></path>
                    <path d="M699.998505,138.656753 C698.533458,138.314596 697.683731,138.179159 695.874398,137.92967 L694.936768,128.37067 L684.447031,128 L684.051468,137.808489 C681.897849,138.022337 680.733137,138.25757 679.019032,138.663881 C678.97508,139.169988 679.019032,139.61194 679.033682,140.132303 C679.29739,146.405174 684.190648,151.266649 689.977583,150.988647 C695.764519,150.710645 700.247563,145.392961 699.983855,139.12009 C699.983855,139.020294 700.00583,138.756548 699.998505,138.656753" id="Fill-584" fill="#9B6D5C"></path>
                    <polyline id="Fill-585" fill="#80B3DD" points="640 327.291771 638.879121 333 622 330.142145 622.754579 324 640 327.291771"></polyline>
                    <polyline id="Fill-586" fill="#80B3DD" points="614 320.284289 612.879121 326 596 323.142145 596.754579 317 614 320.284289"></polyline>
                    <path d="M655.662639,220 L553.344651,220 C551.485782,220 549.867472,219.19186 549,218 L660,218 C659.132528,219.19186 657.514218,220 655.662639,220" id="Fill-587" fill="#AFB4BC"></path>
                    <path d="M611.307692,215 L599.699301,215 C598.993007,215 598.370629,214.601562 598,214 L613,214 C612.629371,214.601562 612.006993,215 611.307692,215" id="Fill-588" fill="#9B7166"></path>
                    <path d="M597.206579,214 C597.591708,214.447674 598.238435,214.744186 598.972361,214.744186 L611.034906,214.744186 C611.761565,214.744186 612.408292,214.447674 612.793421,214 L661,214 C661,214.726744 660.752936,215.412791 660.324207,216 L549.675793,216 C549.254331,215.412791 549,214.726744 549,214 L597.206579,214" id="Fill-589" fill="#C2C7D3"></path>
                    <path d="M611.307692,215 L599.699301,215 C598.993007,215 598.370629,214.609375 598,214 L613,214 C612.629371,214.609375 612.006993,215 611.307692,215" id="Fill-590" fill="#AFB4BC"></path>
                    <path d="M558,212.929268 C558,214.070732 558.923351,215 560.057545,215 L649.942455,215 C651.076649,215 652,214.070732 652,212.929268 L652,154.070732 C652,152.921951 651.076649,152 649.942455,152 L560.057545,152 C558.923351,152 558,152.921951 558,154.070732 L558,212.929268" id="Fill-591" fill="#141313"></path>
                    <polyline id="Fill-592" fill="#5B5A5A" points="591.633244 215 574 215 619.429017 152 626 152 591.633244 215"></polyline>
                    <path d="M568.816474,215 L560.044798,215 C558.91763,215 558,214.070732 558,212.929268 L558,193.75122 L579.99422,152 L613,152 L568.816474,215 M604.712428,153.573171 C604.343931,153.573171 604.054913,153.873171 604.054913,154.246341 C604.054913,154.612195 604.343931,154.912195 604.712428,154.912195 C605.073699,154.912195 605.369942,154.612195 605.369942,154.246341 C605.369942,153.873171 605.073699,153.573171 604.712428,153.573171" id="Fill-593" fill="#434242"></path>
                    <path d="M604,153.502732 C604,153.775956 604.21978,154 604.5,154 C604.774725,154 605,153.775956 605,153.502732 C605,153.224044 604.774725,153 604.5,153 C604.21978,153 604,153.224044 604,153.502732" id="Fill-594" fill="#000000"></path>
                    <path d="M604.505,154.725 C604.375,154.725 604.275,154.625 604.275,154.505 C604.275,154.375 604.375,154.275 604.505,154.275 C604.625,154.275 604.725,154.375 604.725,154.505 C604.725,154.625 604.625,154.725 604.505,154.725" id="Fill-595" fill="#333333"></path>
                    <polygon id="Fill-596" fill="#373737" points="563 209 646 209 646 157 563 157"></polygon>
                    <polyline id="Fill-597" fill="#FFFFFF" points="602.724739 170 614 198 608.968641 198 598 170 602.724739 170"></polyline>
                    <polyline id="Fill-598" fill="#FFFFFF" points="619.891026 196 636 183.010966 617.610043 171 615 174.92709 627.997863 183.411085 616.899573 192.361885 619.891026 196"></polyline>
                    <polyline id="Fill-599" fill="#FFFFFF" points="591.110716 196 594.101104 192.361885 582.999288 183.411085 596 174.92709 593.390886 171 575 183.010966 591.110716 196"></polyline>
                    <path d="M682.046818,221 C683.229844,221 684.412871,220.978081 685.624752,220.926938 C701.494625,220.28399 714.20495,211.158513 722.392362,194.536849 C726.107355,186.996823 728.055021,179.566391 729,175 L715.734229,179.756353 C714.782037,182.824968 713.779349,186.185832 712.062518,189.634371 C705.75785,202.274142 696.712023,208.915502 685.163083,209.3831 C654.45488,210.639771 634.898868,192.834498 634.704102,192.651842 L627,201.170902 C627.901697,202.003812 648.77058,221 682.046818,221" id="Fill-600" fill="#9B6D5C"></path>
                    <polygon id="Fill-601" fill="#B2B2B2" points="245 319 255 319 255 280 245 280"></polygon>
                    <path d="M283,273 C283,278.519528 278.602893,283 273.17883,283 L226.82117,283 C221.397107,283 217,278.519528 217,273 C217,267.473102 221.397107,263 226.82117,263 L273.17883,263 C278.602893,263 283,267.473102 283,273" id="Fill-602" fill="#373737"></path>
                    <polygon id="Fill-603" fill="#373737" points="243 348 258 348 258 311 243 311"></polygon>
                    <polyline id="Fill-604" fill="#B2B2B2" points="243 332 195 342.332598 195 348 243 342.000882 243 332"></polyline>
                    <polygon id="Fill-605" fill="#B2B2B2" points="247 348 254 348 254 332 247 332"></polygon>
                    <path d="M202,357.003434 C202,360.314253 199.308924,363 196,363 C192.684211,363 190,360.314253 190,357.003434 C190,353.685747 192.684211,351 196,351 C199.308924,351 202,353.685747 202,357.003434" id="Fill-606" fill="#373737"></path>
                    <polyline id="Fill-607" fill="#B2B2B2" points="258 332 306 342.332598 306 348 258 342.000882 258 332"></polyline>
                    <path d="M299,357.003434 C299,360.314253 301.685747,363 305.003434,363 C308.314253,363 311,360.314253 311,357.003434 C311,353.685747 308.314253,351 305.003434,351 C301.685747,351 299,353.685747 299,357.003434" id="Fill-608" fill="#373737"></path>
                    <path d="M257,357.003434 C257,360.314253 254.314253,363 250.996566,363 C247.685747,363 245,360.314253 245,357.003434 C245,353.685747 247.685747,351 250.996566,351 C254.314253,351 257,353.685747 257,357.003434" id="Fill-609" fill="#373737"></path>
                    <path d="M336.683511,273 L238.529935,273 C231.22148,273 253.34378,253.101287 253.270842,245.852211 C252.862385,204.619467 236.378244,142.516634 236.210485,141.885964 C235.320634,138.536891 237.333741,135.100829 240.710802,134.209193 C244.080568,133.324806 247.537862,135.325551 248.427714,138.681873 C248.471477,138.841352 252.738389,154.5501 256.990714,175.659409 C262.730988,204.133779 265.728767,227.707774 265.911114,245.728976 C265.991347,253.840692 272.606884,260.444601 280.65202,260.444601 L336.683511,260.444601 C340.169979,260.444601 343,263.249993 343,266.7223 C343,270.187359 340.169979,273 336.683511,273" id="Fill-610" fill="#5454B5"></path>
                    <polyline id="Fill-611" fill="#5454B5" points="164 134.224777 242.521739 134 268 263 185.971014 260.346186 164 134.224777"></polyline>
                    <path d="M259.683512,273 L203.652038,273 C196.350878,273 189.480057,270.174013 184.323294,265.049652 C179.203001,259.954201 176.343805,253.160267 176.270867,245.932678 C175.86241,204.82215 159.378274,142.484192 159.210515,141.862619 C158.320664,138.516246 160.333771,135.090368 163.703536,134.208602 C167.080596,133.326837 170.537888,135.321651 171.42774,138.660797 C171.471503,138.819804 175.738414,154.901191 179.990738,175.947931 C185.73101,204.337902 188.728789,227.842022 188.911136,245.809809 C188.991368,253.897481 195.606904,260.481815 203.652038,260.481815 L259.683512,260.481815 C263.16998,260.481815 266,263.278892 266,266.740908 C266,270.195695 263.16998,273 259.683512,273" id="Fill-612" fill="#6363CE"></path>
                    <polygon id="Fill-613" fill="#373737" points="244 285 256 285 256 282 244 282"></polygon>
                    <path d="M265.648045,232 L265.648045,235.538931 C265.648045,240.404962 269.84581,242.877863 274.399441,244.328244 L322.956983,244.328244 C332.645251,244.328244 339,251.804962 339,261.479008 L339,327 L321.569832,327 L321.569832,261.479008 C321.569832,260.833588 322.259777,260.282443 321.613408,260.282443 L224.040782,260.282443 C216.277095,260.282443 209,254.024046 209,246.264504 L209,232 L265.648045,232" id="Fill-614" fill="#246591"></path>
                    <path d="M226.370556,233 L226.370556,236.548076 C226.370556,241.426681 229.605822,244.167715 234.158355,245.00384 L273.973117,244.931133 C286.052891,244.45127 292.523423,249.039049 294.521037,258.534515 L300,318.102933 L283.165036,322 L276.173387,262.431582 C276.043108,261.799036 276.014157,261.697247 275.384475,261.828119 L223.584029,261.806307 C215.839656,261.806307 209,255.080957 209,247.301364 L209,233 L226.370556,233" id="Fill-615" fill="#2B72B6"></path>
                    <polyline id="Fill-616" fill="#F2C5AD" points="289.159547 337 302 333.277718 298.840453 316 286 319.722282 289.159547 337"></polyline>
                    <polyline id="Fill-617" fill="#80B3DD" points="282.146862 324 303 318.615725 300.853138 311 280 316.391473 282.146862 324"></polyline>
                    <polygon id="Fill-618" fill="#F2C5AD" points="324 342 338 342 338 326 324 326"></polygon>
                    <polygon id="Fill-619" fill="#FFFFFF" points="318 361 364 361 364 356 318 356"></polygon>
                    <path d="M340.025186,341.147059 L340.025186,335 C337.119148,335.25 335.324669,337.882353 335.324669,341.558824 L324.848402,341.558824 L319,357 L364,357 L364,353.492647 C358.914433,348.786765 340.025186,341.147059 340.025186,341.147059" id="Fill-620" fill="#373737"></path>
                    <polyline id="Fill-621" fill="#FFFFFF" points="332 346.653913 287.322684 358 286 353.346087 330.684665 342 332 346.653913"></polyline>
                    <path d="M303.150322,331.891439 L301.571358,326 C298.791798,326.99892 296.776253,330.046719 297.758558,333.706994 L287.629899,336.426681 L286,353 L330,341.173373 L329.039524,337.600594 C322.556309,334.509047 303.150322,331.891439 303.150322,331.891439" id="Fill-622" fill="#373737"></path>
                    <polygon id="Fill-623" fill="#80B3DD" points="321 328 342 328 342 319 321 319"></polygon>
                    <path d="M208.684134,177.063214 L191,175.181106 C191.086936,174.127416 192.17363,168.735431 192.376479,167.659941 C195.433712,151.527586 211.77759,134 236.728085,134 C263.3376,134 279.630766,153.947439 281,170.857344 L265.192224,177.063214 L265.192224,237 L208.684134,237 L208.684134,177.063214" id="Fill-624" fill="#5EC4C6"></path>
                    <path d="M226.003412,135.121025 C227.537748,134.769003 228.419807,134.618137 230.317343,134.359508 L231.303173,124.387943 L242.288132,124 L242.71063,134.237378 C244.963955,134.452902 246.179565,134.704346 247.980742,135.121025 C248.025216,135.659835 247.980742,136.112435 247.965918,136.665612 C247.691665,143.21035 242.562385,148.282342 236.499162,147.987793 C230.443352,147.693244 225.743983,142.154284 226.010824,135.609546 C226.018237,135.501784 225.996,135.228787 226.003412,135.121025" id="Fill-625" fill="#F2C5AD"></path>
                    <path d="M276.991333,98.3611641 C276.794536,102.779389 273.055408,106.194747 268.64155,105.991368 C264.220663,105.795003 260.804843,102.057044 261.008667,97.6388194 C261.205464,93.2276076 264.944592,89.8052365 269.35845,90.0086151 C273.779337,90.2049807 277.195157,93.9429392 276.991333,98.3611641" id="Fill-626" fill="#EDBEA4"></path>
                    <path d="M269.453572,101.245797 C268.685621,118.438419 254.311912,131.745992 237.351805,130.967514 C220.391698,130.189036 207.264096,115.61827 208.032047,98.4256489 L208.546428,86.8145705 C208.857955,79.8817064 208.531939,70.0846295 212.53832,65.0832731 C218.471822,57.6877285 230.527191,56.630173 240.648195,57.0928535 C257.608302,57.8713319 270.735904,72.442097 269.967953,89.6347186 L269.453572,101.245797" id="Fill-627" fill="#F2C5AD"></path>
                    <path d="M215.99189,97.3642548 C215.795087,101.773691 212.0488,105.194685 207.634788,104.991388 C203.220775,104.795102 199.804836,101.051637 200.008668,96.6422008 C200.205471,92.225754 203.94473,88.8117706 208.36577,89.0080571 C212.779783,89.2113538 216.188693,92.947808 215.99189,97.3642548" id="Fill-628" fill="#F2C5AD"></path>
                    <path d="M212.320744,94 C212.320744,94 210.196244,92.4713745 209.504547,91.7546028 C209.504547,91.7546028 205.686093,82.2171501 207.478861,75.4590164 C208.135267,72.4675914 210.033907,68.6935687 212.497198,65 L220,72.0141236 C216.908535,76.49029 213.880593,83.1021438 212.320744,94" id="Fill-629" fill="#BA6338"></path>
                    <path d="M263,69.2927215 L269.181759,67 C269.181759,67 275.112107,75.3484177 272.1913,89.7525316 L271.459249,90 C271.459249,90 271.141288,75.5740506 263,69.2927215" id="Fill-630" fill="#BA6338"></path>
                    <path d="M213,65.3058891 L220.730208,72.1367419 C220.730208,72.1367419 250.927497,75.2188686 264.796845,69.7355502 C271.492892,67.0834877 273.286217,65.6141018 275,50.5546875 C265.70797,64.3382447 212.913333,28.2916981 213,65.3058891" id="Fill-631" fill="#A55532"></path>
                    <path d="M241.997878,103.546212 C241.972731,103.818211 241.731325,104.023493 241.454714,103.997833 C241.183132,103.972172 240.976931,103.725834 241.002077,103.453835 C241.027224,103.176705 241.273659,102.976555 241.545241,103.002215 C241.821853,103.027875 242.023024,103.274214 241.997878,103.546212" id="Fill-632" fill="#9B4B10"></path>
                    <path d="M244.998534,101.549614 C244.977905,101.823128 244.730357,102.019496 244.455304,101.998457 C244.18025,101.970404 243.980837,101.724943 244.001466,101.45143 C244.028971,101.177916 244.269643,100.974535 244.544696,101.002587 C244.81975,101.03064 245.019163,101.276101 244.998534,101.549614" id="Fill-633" fill="#9B4B10"></path>
                    <path d="M248.997878,104.549004 C248.972731,104.822392 248.731325,105.023564 248.454714,104.997773 C248.183132,104.971981 247.976931,104.729543 248.002077,104.450996 C248.027224,104.177608 248.26863,103.976436 248.545241,104.002227 C248.821853,104.028019 249.023024,104.270457 248.997878,104.549004" id="Fill-634" fill="#9B4B10"></path>
                    <path d="M249.998196,100.550602 C249.975024,100.82445 249.731719,101.02686 249.453656,100.997094 C249.181386,100.973281 248.978632,100.729199 249.001804,100.45535 C249.024976,100.175548 249.268281,99.9731381 249.546344,100.002904 C249.818614,100.026717 250.021368,100.2708 249.998196,100.550602" id="Fill-635" fill="#9B4B10"></path>
                    <path d="M252.998684,103.545188 C252.96937,103.821339 252.729975,104.027197 252.451494,103.997071 C252.177899,103.971966 251.977588,103.730962 252.002016,103.454812 C252.026445,103.178661 252.26584,102.972803 252.544321,103.002929 C252.817916,103.028034 253.018227,103.269038 252.998684,103.545188" id="Fill-636" fill="#9B4B10"></path>
                    <path d="M256.997968,105.544116 C256.973224,105.821412 256.731972,106.023081 256.459791,105.997873 C256.181424,105.966362 255.977288,105.726879 256.002031,105.449583 C256.026775,105.17859 256.274213,104.97692 256.546394,105.002129 C256.818575,105.027337 257.022711,105.273122 256.997968,105.544116" id="Fill-637" fill="#9B4B10"></path>
                    <path d="M238.998273,106.544137 C238.969826,106.817731 238.730874,107.021472 238.452097,106.998187 C238.17901,106.969081 237.974194,106.724593 238.00264,106.450999 C238.025398,106.177404 238.270039,105.973664 238.543127,106.00277 C238.816214,106.026054 239.02103,106.270543 238.998273,106.544137" id="Fill-638" fill="#9B4B10"></path>
                    <path d="M238.998228,102.544112 C238.975452,102.823514 238.730609,103.021424 238.457295,102.998141 C238.178287,102.969037 237.978996,102.724559 238.001772,102.450978 C238.030242,102.177396 238.269391,101.973665 238.542705,102.00277 C238.821713,102.026053 239.021004,102.27053 238.998228,102.544112" id="Fill-639" fill="#9B4B10"></path>
                    <path d="M233.998228,106.546797 C233.975452,106.821728 233.730609,107.026465 233.457295,106.997217 C233.178287,106.973818 232.978996,106.728135 233.001772,106.453203 C233.024548,106.178272 233.269391,105.973535 233.542705,106.002783 C233.821713,106.026182 234.021004,106.271865 233.998228,106.546797" id="Fill-640" fill="#9B4B10"></path>
                    <path d="M273.335708,103.545366 C272.782206,105.052407 272.155875,107.358635 270.043829,107.457582 L257.029251,107.609859 C254.290874,107.632642 252.681348,99.8538786 252.229807,95.9416627 C252.142412,95.1424746 252.470144,94.5107355 252.761461,94.1225584 C253.336811,93.3614269 254.239893,92.8819141 255.121127,92.8743028 L272.949714,92.6763788 C274.449995,92.6687973 275.207419,94.1225584 275.200188,95.8503269 C275.018063,96.7256281 273.998454,101.726262 273.335708,103.545366 Z M243.759772,95.9340514 C243.060612,99.8538786 240.846604,107.731589 238.108226,107.746812 L225.093649,107.90665 C223.207373,108.08171 222.697569,105.973376 222.238745,104.473947 C221.685243,102.662454 221.226419,97.1138052 221.102609,96.238504 C221.20457,94.5107355 221.72894,93.1102535 223.236505,93.1026422 L241.065092,92.904748 C241.939042,92.904748 242.812993,93.3690383 243.337363,94.1225584 C243.606831,94.5031242 243.898148,95.1348633 243.759772,95.9340514 Z M273.532347,89.0000714 L255.019166,89.2665395 L241.276296,89.494879 L222.763115,89.494879 C220.214093,89.5177129 218.094764,91.8772205 218.007369,94.838022 L218.000043,94.9217465 L218.000043,95.005471 C217.992803,95.2794783 218.910451,102.936461 219.55863,105.060018 C220.083001,106.780175 221.765355,110.022595 224.336226,109.999881 L238.04268,109.900814 C242.725597,109.870369 245.114395,98.0499969 245.631482,95.2414217 C246.07574,94.2138942 246.993388,93.4984306 248.034846,93.4908193 C249.025323,93.483208 249.862859,94.1225584 250.270702,95.0739728 C250.569302,97.6085407 252.200676,109.801867 256.963705,109.763811 L270.662877,109.664863 C273.24103,109.649641 275.120024,106.376775 275.76092,104.649007 C276.540193,102.517839 277.909382,94.838022 277.967645,94.5640147 L277.989494,94.4574563 L277.996777,94.3508979 C278.091455,91.3824851 276.088652,88.9849209 273.532347,89.0000714 L273.532347,89.0000714 Z" id="Fill-641" fill="#000000"></path>
                    <polyline id="Fill-642" fill="#000000" points="219.164602 94.6135315 208 87 208.254867 88.6647873 220 101 219.164602 94.6135315"></polyline>
                    <path d="M236,111.312477 L261,111 C261,111 257.551724,119.066262 250.412938,119.909223 C241.899117,120.912055 236.370476,113.318142 236,111.312477" id="Fill-643" fill="#FFFFFF"></path>
                    <path d="M264,121.427374 L264.27345,124 C264.305246,123.99162 265.926868,123.698324 268,123.446927 L266.740859,121 C265.201908,121.209497 264.09539,121.410615 264,121.427374" id="Fill-646" fill="#FFFFFF"></path>
                    <path d="M273.879955,121 L273.761042,121 C273.507361,121 273.253681,121.006678 273,121.013356 L274.1812,123.076795 C276.511891,123.136895 277.677237,123.918197 278.517554,125 L280,123.217028 C278.810872,121.994992 277.011325,121 273.879955,121" id="Fill-647" fill="#E0E0E0"></path>
                    <path d="M283,132.685754 C282.4375,130.99581 281.886719,129.403631 281.353516,128 L280,129.703911 C280.375,130.723464 280.761719,131.833799 281.148438,133 L283,132.685754" id="Fill-648" fill="#E0E0E0"></path>
                    <path d="M280.308958,126.047514 L280.215722,125.78453 C279.908592,124.902762 279.552102,123.904972 279.025594,123 L278,125.065193 C278.25777,125.614365 278.471664,126.21768 278.696527,126.851934 L278.784278,127.114917 C279.091408,127.973481 279.409506,128.948066 279.73309,130 L281,128.112707 C280.764168,127.370166 280.533821,126.681768 280.308958,126.047514" id="Fill-649" fill="#5454B5"></path>
                    <path d="M268,121.307246 L269.501625,123 C271.109426,122.889855 272.944745,122.797101 274.620802,122.785507 L274.711809,122.785507 C274.810401,122.785507 274.901408,122.785507 275,122.791304 L273.869989,121 C271.829902,121.04058 269.698808,121.173913 268,121.307246" id="Fill-650" fill="#5454B5"></path>
                    <path d="M276,136 L278.288136,170.716393 C278.288136,171.42459 282.639225,172 288.007264,172 C293.368039,172 297.719128,171.42459 297.719128,170.716393 L300,136 L276,136" id="Fill-651" fill="#E0E0E0"></path>
                    <path d="M300.812897,134.717842 L298.43869,134.717842 C297.898451,133.694606 296.860625,133 295.666413,133 L280.333587,133 C279.139375,133 278.101549,133.694606 277.56131,134.717842 L275.179995,134.717842 L274,140.946888 C274,141.529461 280.269612,142 287.996446,142 C295.730388,142 302,141.529461 302,140.946888 L300.812897,134.717842" id="Fill-652" fill="#C2C7D3"></path>
                    <path d="M290.559594,215.992815 C290.44247,216 290.332665,216 290.21554,216 C286.884806,216 283.744398,214.534225 280.889483,211.62423 C278.913003,209.626752 277.075608,206.946683 275.267495,203.433134 C272.551665,198.187958 269.901718,190.995601 267.376216,182.064432 C266.893076,180.361546 266.431897,178.651475 266,176.970145 L277.653912,172.314153 C278.005286,173.700892 278.378621,175.109185 278.759277,176.524664 C284.388584,197.182034 288.868606,202.032025 290.149658,203.045135 C290.735281,202.549358 291.804045,201.327878 293.055815,198.863364 C294.629679,195.752185 296.035176,191.534489 297.008775,186.97909 C299.117021,177.099478 299.058458,170.999267 296.855049,164.288316 C296.437792,164.079946 295.295826,163.749428 293.18026,163.763798 C290.881687,163.778169 288.524552,164.166168 287.111735,164.396094 C286.555392,164.489501 286.123495,164.561353 285.735519,164.604464 L284.315382,151.922635 C284.425186,151.908264 284.798521,151.850783 285.098653,151.800487 C287.280102,151.441228 291.342866,150.765822 295.464193,151.08197 C298.165382,151.29034 300.529838,151.91545 302.491677,152.928559 C305.397835,154.43026 307.476799,156.822922 308.508961,159.833509 C311.100346,167.421051 311.69329,173.327263 310.177989,184.004428 C308.750531,194.027744 305.690647,203.037949 301.766968,208.721421 C299.526957,211.969118 295.778966,215.827556 290.559594,215.992815" id="Fill-653" fill="#F2C5AD"></path>
                    <path d="M318,220 L318,207.28229 C317.480072,207.28229 265.787515,207.274951 244.031092,206.856654 C240.062065,206.783268 231.421008,203.972603 218.166507,186.007828 L210.645858,176.62182 L196,175 C198.621609,179.630626 202.751741,186.492172 207.863145,193.427104 C220.473229,210.562622 232.556062,219.354207 243.789436,219.574364 C265.663025,219.992661 317.480072,220 318,220" id="Fill-654" fill="#F2C5AD"></path>
                    <polygon id="Fill-655" fill="#C2C7D3" points="230 220 278 220 278 218 230 218"></polygon>
                    <polyline id="Fill-656" fill="#C2C7D3" points="350.652523 220 268 220 282.347477 160 365 160 350.652523 220"></polyline>
                    <polyline id="Fill-657" fill="#FFFFFF" points="320.401038 179 322.283914 185.93218 329 187.160208 323.062268 192.421107 322.91401 200 317.361749 196.308651 310.556709 199.767474 313.062268 192.23218 309 186.789619 316.101557 185.815917 320.401038 179"></polyline>
                    <polygon id="Fill-658" fill="#E0E0E0" points="229 230 660 230 660 220 229 220"></polygon>
                    <g id="Group-6" transform="translate(391.000000, 17.000000)">
                        <path d="M97.5222018,25.9761033 C95.3563413,13.8129645 87.4196981,1.54792031 67.069331,0.106686626 L67.069331,0.0338970464 C67.069331,0.0266180884 66.6550557,0.0193391305 66.480624,0.0120601725 C65.804701,-0.0024977435 65.1069742,-0.0024977435 64.4455872,0.00478121448 C63.7914683,-0.0024977435 62.752146,-0.0024977435 62.0762231,0.0120601725 C61.9017914,0.0193391305 61.2549404,0.0266180884 61.2549404,0.0338970464 L61.2549404,0.0994076683 C38.7241768,1.6352678 31.7323721,12.0878515 29.995323,25.8014083 C28.0329661,41.2255203 28.1419859,100.760118 28.2437378,107.398527 C30.2569705,117.741927 35.0756467,118.972071 41.4932804,125.370275 C47.8527701,131.710247 55.934773,135.495305 64.6636269,135.495305 C73.1817091,135.495305 81.0602084,131.892221 87.3470182,125.828849 C93.3503765,120.034798 98.0236929,111.99155 100.371253,102.689042 C100.502077,94.3546346 100.480273,42.5794065 97.5222018,25.9761033" id="Fill-704" fill="#7F5124"></path>
                        <path d="M92.3223356,175.387324 L92.3223356,178.206689 C92.3223356,182.847349 95.6357076,185.586576 99.9663428,186.315095 L132.104597,186.315095 C141.31083,186.315095 148.213688,194.321508 148.213688,203.559116 L151.992095,286.122066 L136.885735,286.122066 L133.107328,203.216713 C133.107328,202.597473 132.714955,201.613973 132.104597,201.613973 L52.1041041,201.613973 C44.721679,201.613973 37.826087,195.851396 37.826087,188.449652 L37.826087,175.387324 L92.3223356,175.387324" id="Fill-705" fill="#246591"></path>
                        <path d="M71.3881423,176.075117 L71.3881423,178.890441 C71.3881423,183.524449 74.6349063,186.259751 78.9906774,186.987225 L105.621439,186.987225 C114.872892,186.987225 121.731225,194.392908 121.731225,203.617276 L121.731225,289.561033 L106.409417,289.561033 L106.409417,203.617276 C106.409417,202.998923 106.234311,202.264175 105.621439,202.264175 L52.1629215,202.264175 C44.7500849,202.264175 37.826087,196.509857 37.826087,189.118723 L37.826087,176.075117 L71.3881423,176.075117" id="Fill-706" fill="#2B72B6"></path>
                        <path d="M152.301363,264.821099 L152.301363,258.610329 C150.854787,258.837106 147.845909,261.251186 147.845909,264.265129 L136.157577,264.638214 L136.504755,279.664035 L134.110672,293 L174,293 L174,289.634918 C168.213697,285.904067 157.103994,279.94202 154.181911,278.420418 L152.301363,264.821099" id="Fill-708" fill="#C6468F"></path>
                        <path d="M121.91893,264.821099 L121.91893,258.610329 C119.732814,258.837106 117.211493,261.251186 117.211493,264.265129 L105.340884,264.638214 L105.632366,279.664035 L103.162055,293 L143.051383,293 L143.051383,289.634918 C137.950446,285.904067 126.39318,279.94202 123.449211,278.420418 L121.91893,264.821099" id="Fill-711" fill="#D84C96"></path>
                        <path d="M6.57821007,206.338028 C6.63668304,206.301519 12.4255079,202.102928 18.345897,203.789666 C21.6276929,204.724309 26.2543673,205.198932 29.6823456,202.132135 C32.9275959,199.233282 32.9568324,195.136918 32.7887226,193.355255 L36.4505929,118.116507 L25.5380733,117.612676 L21.8469665,193.428274 C21.693475,193.391765 21.5253652,193.347953 21.3426371,193.29684 C10.1085161,190.091307 0.402001726,197.320185 0,197.626865 L6.60744655,206.316122 L6.57821007,206.338028" id="Fill-713" fill="#F2C5AD"></path>
                        <path d="M125.518912,147.875587 C135.44094,147.875587 144.5958,141.993133 151.295726,131.596915 C157.506127,121.943284 160.932806,108.707763 160.932806,95.6032864 L150.009808,95.6032864 C150.009808,118.172107 138.794556,136.845986 125.518912,136.845986 C115.677254,136.845986 106.537006,126.471609 102.774234,110.920963 L92.1581028,113.505457 C94.4961358,123.166368 98.6753699,131.509552 104.235505,137.610414 C110.365535,144.315537 117.723033,147.875587 125.518912,147.875587" id="Fill-714" fill="#F2C5AD"></path>
                        <path d="M38.1577797,123.041854 L22.0079051,117.107806 C23.3077377,100.92271 39.3995191,81.8474178 64.7498842,81.8474178 C90.0929877,81.8474178 105.988705,100.92271 107.288538,117.107806 L92.6200364,123.041854 L92.6200364,176.762911 L38.1577797,176.762911 L38.1577797,123.041854" id="Fill-715" fill="#373737"></path>
                        <path d="M54.3347388,82.3696614 C55.7761119,82.0233393 56.6028894,81.8759682 58.3808269,81.6254373 L59.310037,71.9063128 L69.6118309,71.5305164 L69.9996115,81.5075404 C72.1141132,81.7212285 73.2628217,81.9570223 74.9456432,82.3696614 C74.9895429,82.8928289 74.9456432,83.3349422 74.9236933,83.8654782 C74.6749284,90.2466471 69.8605958,95.1909478 64.1755859,94.9035742 C58.4978927,94.6235691 54.0932905,89.2150494 54.3420554,82.841249 C54.349372,82.7380892 54.3274222,82.4728212 54.3347388,82.3696614" id="Fill-716" fill="#F2C5AD"></path>
                        <path d="M95.592754,45.9968757 C95.8625682,62.4864925 82.7291809,76.0636006 66.2632239,76.3409824 C49.7899747,76.6110647 36.2190509,63.4646282 35.9492367,46.9823109 L35.7669298,35.8505422 C35.4971156,19.3609254 48.6305029,5.7765177 65.0964599,5.50643544 C81.5624169,5.23635318 95.1406329,18.3827896 95.4104471,34.8651069 L95.592754,45.9968757" id="Fill-717" fill="#F2C5AD"></path>
                        <path d="M42.6392167,46.296644 C42.7113042,50.6607159 39.2294811,54.2626929 34.8609827,54.3345886 C30.4924842,54.4064844 26.8953213,50.9195406 26.8232339,46.5554687 C26.7511464,42.1913968 30.2329695,38.5894198 34.6014679,38.517524 C38.9699664,38.4456283 42.5671293,41.9325721 42.6392167,46.296644" id="Fill-718" fill="#F2C5AD"></path>
                        <path d="M58.2813509,47.5099328 C57.6748878,49.5061789 55.7297684,50.6480007 53.9325668,50.0499036 C52.1279694,49.4518065 51.1591076,47.3468154 51.7581748,45.3428018 C52.3646379,43.3387881 54.3097573,42.2047339 56.1069589,42.802831 C57.9115563,43.4009281 58.8804181,45.5059192 58.2813509,47.5099328" id="Fill-719" fill="#000000"></path>
                        <path d="M85.7911743,48.1917976 C85.1847164,50.1965696 83.2396139,51.331053 81.4424279,50.7405 C79.637846,50.1421766 78.6689927,48.0363889 79.2680547,46.0316168 C79.8745125,44.0268448 81.8196151,42.8923614 83.6241969,43.4906848 C85.4213829,44.0890083 86.3902363,46.1947959 85.7911743,48.1917976" id="Fill-720" fill="#000000"></path>
                        <path d="M58.458498,58.4624413 L80.4664032,58.5417517 C80.4664032,58.5417517 77.0169112,65.1821905 71.5167659,65.9248237 C64.0392048,66.9414381 58.7587723,60.1640087 58.458498,58.4624413" id="Fill-721" fill="#FFFFFF"></path>
                        <path d="M52.2687747,24.7605634 C52.2687747,24.7605634 41.6760865,48.0350366 39.7197472,73.5938967 L35.2094958,72.8640606 C35.2094958,72.8640606 32.9472562,41.0432067 35.9280059,24.7605634 L52.2687747,24.7605634" id="Fill-722" fill="#7F5124"></path>
                        <path d="M160.366082,119.404387 C161.039379,120.397592 162.40045,120.663886 163.399535,119.994553 C164.405859,119.318022 164.67373,117.972157 164.000434,116.971754 L139.493902,80.7485539 C138.813366,79.7481516 137.459534,79.4818574 136.453209,80.1583885 C135.446885,80.8277224 135.186254,82.1807846 135.859551,83.1739897 L160.366082,119.404387" id="Fill-726" fill="#373737"></path>
                        <path d="M146.490119,100.41784 C146.490119,105.355255 150.486456,109.359155 155.43083,109.359155 C160.367911,109.359155 164.371542,105.355255 164.371542,100.41784 C164.371542,95.4804261 160.367911,91.4765258 155.43083,91.4765258 C150.486456,91.4765258 146.490119,95.4804261 146.490119,100.41784" id="Fill-727" fill="#F4AC89"></path>
                        <g id="Unofficial_JavaScript_logo_2" transform="translate(66.023715, 109.359155)" fill="#F7DF1E" fill-rule="nonzero">
                            <path d="M12.3015334,9.62663483 C12.915908,10.593498 13.7152245,11.3041798 15.1289156,11.3041798 C16.3165129,11.3041798 17.0751616,10.7320879 17.0751616,9.94161197 C17.0751616,8.99434737 16.2956949,8.65883838 14.9885148,8.10774504 L14.2719864,7.8114332 C12.2037369,6.96216149 10.8297454,5.89823869 10.8297454,3.64906856 C10.8297454,1.57721889 12.4675937,0 15.027246,0 C16.849552,0 18.1596369,0.611288978 19.1037115,2.21183951 L16.8718224,3.59307262 C16.3804195,2.74380091 15.8502854,2.40922519 15.027246,2.40922519 C14.1877459,2.40922519 13.6556752,2.92252128 13.6556752,3.59307262 C13.6556752,4.42181249 14.18823,4.75732148 15.4179476,5.27061757 L16.134476,5.56646277 C18.5697042,6.57298973 19.944664,7.59911528 19.944664,9.90614788 C19.944664,12.3933007 17.9175665,13.7558685 15.1952429,13.7558685 C12.5334368,13.7558685 10.8137687,12.5332906 9.97233202,10.9308735 L12.3015334,9.62663483 Z M2.30507126,9.96501063 C2.74991796,10.7163518 3.15458497,11.3515767 4.12750776,11.3515767 C5.0578592,11.3515767 5.64476986,11.005049 5.64476986,9.65764377 L5.64476986,0.491281019 L8.47648221,0.491281019 L8.47648221,9.69407243 C8.47648221,12.4854189 6.75736495,13.7558685 4.24804687,13.7558685 C1.98076366,13.7558685 0.667748387,12.6388746 0,11.2935185 L2.30507126,9.96501063 Z" id="Shape"></path>
                        </g>
                        <path d="M51.962946,5.16136018 C51.962946,5.16063095 50.4656292,9.30049361 53.4004576,12.8919721 C59.6500961,20.5401806 75.8004046,31.4568169 97.600112,35.0774648 C97.600112,35.0774648 101.232181,-9.94035126 51.962946,5.16136018" id="Fill-124" fill="#7F5124"></path>
                        <path d="M63.2727273,14.273594 C63.2727273,14.273594 47.9998103,32.8374525 38.3975735,34.3168762 C25.8250832,36.0599304 46.8312803,5.92210372 46.8312803,5.92210372 L60.0045849,2.75117371 L63.2727273,14.273594" id="Fill-125" fill="#7F5124"></path>
                        <g id="Group-4" transform="translate(68.086957, 135.495305)">
                            <path d="M80.9480708,4.12388055e-14 C81.196263,4.12388055e-14 81.4371554,0.0515091324 81.6488488,0.141468744 C81.8678419,0.232879317 82.057636,0.36346585 82.2109312,0.525973535 C82.3715261,0.68775574 82.4956222,0.880008136 82.5832195,1.09475043 C82.663517,1.30804177 82.7000158,1.54237205 82.6927161,1.7890355 L80.4443866,51.017982 C80.4370868,51.2392536 80.3713888,51.448192 80.2764918,51.639719 C80.1815948,51.8297949 80.0501989,52.0024593 79.8896039,52.145379 C79.7217092,52.2904752 79.5319152,52.4051011 79.3202218,52.484904 C79.1158282,52.5661579 78.8822355,52.6104122 78.6486428,52.6104122 L4.04498152,52.6104122 C3.80408907,52.6104122 3.57779616,52.5661579 3.3661028,52.484904 C3.16170921,52.4051011 2.97191516,52.2904752 2.80402042,52.145379 C2.64342545,52.0024593 2.51202957,51.8297949 2.41713255,51.639719 C2.32223552,51.448192 2.26383735,51.2392536 2.24923781,51.017982 L0.000908290394,1.7890355 C-0.00639148077,1.54237205 0.0301073751,1.30804177 0.117704629,1.09475043 C0.198002112,0.880008136 0.322098222,0.68775574 0.482693187,0.525973535 C0.635988382,0.36346585 0.833082203,0.232879317 1.04477557,0.141468744 C1.25646893,0.0515091324 1.49736138,4.12388055e-14 1.7455536,4.12388055e-14 L80.9480708,4.12388055e-14" id="Fill-262" fill="#C2C7D3"></path>
                            <polyline id="Fill-263" fill="#FFFFFF" points="41.3468122 18.4054463 44.0185284 23.5984375 49.9751417 24.4254855 45.6463774 28.416355 46.6245467 33.9931255 41.3468122 31.3712381 36.0690776 33.9931255 37.047247 28.416355 32.7184827 24.4254855 38.6750959 23.5984375 41.3468122 18.4054463"></polyline>
                        </g>
                    </g>
                    <polygon id="Fill-707" fill="#F4F4F4" points="487 315 528 315 528 310 487 310"></polygon>
                    <path d="M500,289.5 C500,291.429978 498.435926,293 496.496166,293 C494.564074,293 493,291.429978 493,289.5 C493,287.570022 494.564074,286 496.496166,286 C498.435926,286 500,287.570022 500,289.5" id="Fill-709" fill="#FFFFFF"></path>
                    <polygon id="Fill-710" fill="#FFFFFF" points="456 315 497 315 497 310 456 310"></polygon>
                    <path d="M471,289.5 C471,291.429978 469.429978,293 467.5,293 C465.570022,293 464,291.429978 464,289.5 C464,287.570022 465.570022,286 467.5,286 C469.429978,286 471,287.570022 471,289.5" id="Fill-712" fill="#FFFFFF"></path>
                    <g id="Unofficial_JavaScript_logo_2" transform="translate(116.000000, 152.000000)" fill="#F7DF1E" fill-rule="nonzero">
                        <path d="M12.3356637,9.79748295 C12.9517429,10.7815055 13.753277,11.5048 15.1708904,11.5048 C16.3617827,11.5048 17.1225362,10.922555 17.1225362,10.1180501 C17.1225362,9.15397402 16.3409069,8.8125106 15.0301,8.25163676 L14.3115836,7.95006615 C12.2375959,7.08572204 10.8597922,6.00291733 10.8597922,3.71383018 C10.8597922,1.60521049 12.5021847,0 15.0689387,0 C16.8963006,0 18.2100204,0.622137793 19.1567142,2.251094 L16.9186329,3.65684046 C16.4258666,2.79249635 15.8942616,2.45198277 15.0689387,2.45198277 C14.2271094,2.45198277 13.6935625,2.97438855 13.6935625,3.65684046 C13.6935625,4.50028834 14.2275949,4.84175176 15.4607243,5.36415754 L16.1792407,5.66525323 C18.6212254,6.68964348 20,7.73398012 20,10.0819566 C20,12.6132501 17.9672784,14 15.2374017,14 C12.5682105,14 10.8437712,12.7557244 10,11.1248686 L12.3356637,9.79748295 Z M2.31146662,10.1418641 C2.75754754,10.9065396 3.16333728,11.5530381 4.13895943,11.5530381 C5.07189211,11.5530381 5.66043113,11.2003605 5.66043113,9.82904222 L5.66043113,0.5 L8.5,0.5 L8.5,9.8661174 C8.5,12.7070031 6.77611309,14 4.25983297,14 C1.98625924,14 0.669601038,12.8631823 0,11.4939495 L2.31146662,10.1418641 Z" id="Shape"></path>
                    </g>
                    <path d="M240.858807,103.382264 C240.317443,105.252112 238.375822,106.374151 236.520397,105.885673 C234.66429,105.398818 233.600299,103.488074 234.140642,101.618551 C234.682687,99.748054 236.625331,98.6266646 238.480756,99.1138442 C240.335841,99.6010238 241.400513,101.512417 240.858807,103.382264" id="Fill-110" fill="#000000"></path>
                    <path d="M260.858807,103.382264 C260.317443,105.252112 258.375822,106.374151 256.520397,105.885673 C254.66429,105.398818 253.600299,103.488074 254.140642,101.618551 C254.682687,99.748054 256.625331,98.6266646 258.480756,99.1138442 C260.335841,99.6010238 261.400513,101.512417 260.858807,103.382264" id="Fill-110" fill="#000000"></path>
                </g>
                <path d="M393.546875,27 L395.984375,18.3359375 L396.164062,18.3359375 L398.601562,27 L400.984375,27 L404.507812,15 L402.09375,15 L399.757812,23.7734375 L399.640625,23.7734375 L397.296875,15 L394.882812,15 L392.523438,23.8125 L392.40625,23.8125 L390.054688,15 L387.640625,15 L391.171875,27 L393.546875,27 Z M407.270548,13.1484375 C407.676798,13.1484375 408.024454,13.0117188 408.313516,12.7382812 C408.602579,12.4648438 408.74711,12.1380208 408.74711,11.7578125 C408.74711,11.3723958 408.602579,11.0429688 408.313516,10.7695312 C408.024454,10.4960938 407.676798,10.359375 407.270548,10.359375 C406.864298,10.359375 406.516641,10.4960938 406.227579,10.7695312 C405.938516,11.0429688 405.793985,11.3723958 405.793985,11.7578125 C405.793985,12.1380208 405.938516,12.4648438 406.227579,12.7382812 C406.516641,13.0117188 406.864298,13.1484375 407.270548,13.1484375 Z M408.426798,27 L408.426798,15 L406.09086,15 L406.09086,27 L408.426798,27 Z M415.241094,27.15625 C415.616094,27.1510417 415.928594,27.1210938 416.178594,27.0664062 C416.428594,27.0117188 416.621302,26.9583333 416.756719,26.90625 L416.756719,26.90625 L416.334844,24.9765625 C416.256719,24.9921875 416.147344,25.0130208 416.006719,25.0390625 C415.866094,25.0651042 415.702031,25.078125 415.514531,25.078125 C415.259323,25.078125 415.023646,25.0377604 414.8075,24.9570312 C414.591354,24.8763021 414.415573,24.7226562 414.280156,24.4960938 C414.14474,24.2695312 414.077031,23.9296875 414.077031,23.4765625 L414.077031,23.4765625 L414.077,16.875 L416.537969,16.875 L416.537969,15 L414.077,15 L414.077031,12.125 L411.741094,12.125 L411.741,15 L409.983281,15 L409.983281,16.875 L411.741,16.875 L411.741094,23.9609375 C411.741094,24.604456 411.870723,25.1512667 412.129983,25.6013696 L412.233281,25.765625 C412.561406,26.2447917 412.991094,26.5989583 413.522344,26.828125 C414.053594,27.0572917 414.626511,27.1666667 415.241094,27.15625 Z M421.074136,27 L421.074136,19.875 C421.074136,19.2395833 421.197834,18.6966146 421.445229,18.2460938 C421.692625,17.7955729 422.033771,17.453125 422.468667,17.21875 C422.903563,16.984375 423.397052,16.8671875 423.949136,16.8671875 C424.756427,16.8671875 425.386636,17.1106771 425.839761,17.5976562 C426.292886,18.0846354 426.519448,18.7682292 426.519448,19.6484375 L426.519448,19.6484375 L426.519448,27 L428.855386,27 L428.855386,19.3671875 C428.855386,18.3671875 428.684813,17.5325521 428.343667,16.8632812 C428.002521,16.1940104 427.523354,15.6901042 426.906167,15.3515625 C426.288979,15.0130208 425.568927,14.84375 424.746011,14.84375 C423.813719,14.84375 423.058511,15.0338542 422.480386,15.4140625 C421.902261,15.7942708 421.472573,16.3072917 421.191323,16.953125 L421.191323,16.953125 L421.042886,16.953125 L421.042886,11 L418.738198,11 L418.738198,27 L421.074136,27 Z M446.399565,27 L446.399565,24.921875 L439.149565,24.921875 L439.149565,11 L436.735502,11 L436.735502,27 L446.399565,27 Z M448.307598,31.46875 C448.953431,31.46875 449.52114,31.359375 450.010723,31.140625 C450.500306,30.921875 450.922181,30.5989583 451.276348,30.171875 C451.630515,29.7447917 451.922181,29.2213542 452.151348,28.6015625 L452.151348,28.6015625 L457.112285,15.0234375 L454.588848,15 L451.549785,24.3125 L451.424785,24.3125 L448.385723,15 L445.885723,15 L450.276348,27.15625 L449.987285,27.953125 C449.69041,28.7291667 449.324525,29.1914062 448.889629,29.3398438 C448.454733,29.4882812 447.916973,29.4739583 447.276348,29.296875 L447.276348,29.296875 L446.713848,31.2109375 C446.854473,31.2734375 447.068015,31.3320312 447.354473,31.3867188 C447.640931,31.4414062 447.95864,31.46875 448.307598,31.46875 Z M462.746891,27.234375 C463.476058,27.234375 464.069808,27.1119792 464.528141,26.8671875 C464.986475,26.6223958 465.347152,26.3359375 465.610173,26.0078125 C465.873193,25.6796875 466.075016,25.3880208 466.215641,25.1328125 L466.215641,25.1328125 L466.410954,25.1328125 L466.410954,27 L468.692204,27 L468.692204,11 L466.356266,11 L466.356266,16.9453125 L466.215641,16.9453125 C466.075016,16.6953125 465.878402,16.40625 465.625798,16.078125 C465.373193,15.75 465.019027,15.4622396 464.563298,15.2148438 C464.107568,14.9674479 463.507308,14.84375 462.762516,14.84375 C461.798975,14.84375 460.936996,15.0885417 460.176579,15.578125 C459.416162,16.0677083 458.818506,16.7734375 458.38361,17.6953125 C457.948714,18.6171875 457.731266,19.7265625 457.731266,21.0234375 C457.731266,22.3203125 457.94611,23.4309896 458.375798,24.3554688 C458.805485,25.2799479 459.399235,25.9908854 460.157048,26.4882812 C460.91486,26.9856771 461.778141,27.234375 462.746891,27.234375 Z M463.262516,25.2421875 C462.569808,25.2421875 461.987777,25.0559896 461.516423,24.6835938 C461.045068,24.3111979 460.6896,23.8046875 460.450016,23.1640625 C460.210433,22.5234375 460.090641,21.8020833 460.090641,21 C460.090641,20.2083333 460.209131,19.4973958 460.44611,18.8671875 C460.683089,18.2369792 461.035954,17.7395833 461.504704,17.375 C461.973454,17.0104167 462.559391,16.828125 463.262516,16.828125 C463.944808,16.828125 464.517725,17.0026042 464.981266,17.3515625 C465.444808,17.7005208 465.796371,18.1875 466.035954,18.8125 C466.275537,19.4375 466.395329,20.1666667 466.395329,21 C466.395329,21.84375 466.274235,22.5833333 466.032048,23.21875 C465.78986,23.8541667 465.435693,24.3502604 464.969548,24.7070312 C464.503402,25.0638021 463.934391,25.2421875 463.262516,25.2421875 Z M472.567429,13.1484375 C472.973679,13.1484375 473.321335,13.0117188 473.610397,12.7382812 C473.89946,12.4648438 474.043991,12.1380208 474.043991,11.7578125 C474.043991,11.3723958 473.89946,11.0429688 473.610397,10.7695312 C473.321335,10.4960938 472.973679,10.359375 472.567429,10.359375 C472.161179,10.359375 471.813522,10.4960938 471.52446,10.7695312 C471.235397,11.0429688 471.090866,11.3723958 471.090866,11.7578125 C471.090866,12.1380208 471.235397,12.4648438 471.52446,12.7382812 C471.813522,13.0117188 472.161179,13.1484375 472.567429,13.1484375 Z M473.723679,27 L473.723679,15 L471.387741,15 L471.387741,27 L473.723679,27 Z M479.725475,27.265625 C480.386933,27.265625 480.954642,27.1692708 481.4286,26.9765625 C481.902558,26.7838542 482.290579,26.5416667 482.592662,26.25 C482.894746,25.9583333 483.121308,25.6614583 483.27235,25.359375 L483.27235,25.359375 L483.3661,25.359375 L483.3661,27 L485.64735,27 L485.64735,19.03125 C485.64735,18.15625 485.496308,17.4440104 485.194225,16.8945312 C484.892142,16.3450521 484.505423,15.921875 484.034069,15.625 C483.562714,15.328125 483.057506,15.1236979 482.518444,15.0117188 C481.979381,14.8997396 481.470267,14.84375 480.9911,14.84375 C480.267142,14.84375 479.577037,14.9466146 478.920787,15.1523438 C478.264537,15.3580729 477.68511,15.6861979 477.182506,16.1367188 C476.679902,16.5872396 476.298392,17.1770833 476.037975,17.90625 L476.037975,17.90625 L478.233287,18.40625 C478.405162,17.984375 478.71636,17.6002604 479.166881,17.2539062 C479.617402,16.9075521 480.235892,16.734375 481.02235,16.734375 C481.777558,16.734375 482.346569,16.921875 482.729381,17.296875 C483.112194,17.671875 483.3036,18.2005208 483.3036,18.8828125 L483.3036,18.8828125 L483.3036,18.9375 C483.3036,19.21875 483.202037,19.421875 482.998912,19.546875 C482.795787,19.671875 482.470267,19.7617188 482.02235,19.8164062 C481.574433,19.8710938 480.9911,19.9401042 480.27235,20.0234375 C479.704642,20.0911458 479.14735,20.1901042 478.600475,20.3203125 C478.0536,20.4505208 477.558808,20.6432292 477.1161,20.8984375 C476.673392,21.1536458 476.321829,21.5 476.061412,21.9375 C475.800996,22.375 475.670787,22.9322917 475.670787,23.609375 C475.670787,24.3958333 475.849173,25.0598958 476.205944,25.6015625 C476.562714,26.1432292 477.048392,26.5559896 477.662975,26.8398438 C478.277558,27.1236979 478.965058,27.265625 479.725475,27.265625 Z M480.233287,25.390625 C479.571829,25.390625 479.027558,25.2434896 478.600475,24.9492188 C478.173392,24.6549479 477.95985,24.21875 477.95985,23.640625 C477.95985,23.2239583 478.070527,22.8893229 478.291881,22.6367188 C478.513235,22.3841146 478.81011,22.1901042 479.182506,22.0546875 C479.554902,21.9192708 479.967662,21.8229167 480.420787,21.765625 C480.613496,21.7395833 480.853079,21.7070312 481.139537,21.6679688 C481.425996,21.6289062 481.720267,21.5846354 482.02235,21.5351562 C482.324433,21.4856771 482.593964,21.4257812 482.830944,21.3554688 C483.067923,21.2851562 483.228079,21.2083333 483.311412,21.125 L483.311412,21.125 L483.311412,22.671875 C483.311412,23.1458333 483.190319,23.5898438 482.948131,24.0039062 C482.705944,24.4179688 482.354381,24.7526042 481.893444,25.0078125 C481.432506,25.2630208 480.879121,25.390625 480.233287,25.390625 Z M495.925896,27 L495.925896,20.0234375 L503.902459,20.0234375 L503.902459,27 L506.324334,27 L506.324334,11 L503.902459,11 L503.902459,17.953125 L495.925896,17.953125 L495.925896,11 L493.511834,11 L493.511834,27 L495.925896,27 Z M512.512055,27.265625 C513.173513,27.265625 513.741222,27.1692708 514.21518,26.9765625 C514.689138,26.7838542 515.077159,26.5416667 515.379242,26.25 C515.681326,25.9583333 515.907888,25.6614583 516.05893,25.359375 L516.05893,25.359375 L516.15268,25.359375 L516.15268,27 L518.43393,27 L518.43393,19.03125 C518.43393,18.15625 518.282888,17.4440104 517.980805,16.8945312 C517.678722,16.3450521 517.292003,15.921875 516.820649,15.625 C516.349294,15.328125 515.844086,15.1236979 515.305024,15.0117188 C514.765961,14.8997396 514.256847,14.84375 513.77768,14.84375 C513.053722,14.84375 512.363617,14.9466146 511.707367,15.1523438 C511.051117,15.3580729 510.47169,15.6861979 509.969086,16.1367188 C509.466482,16.5872396 509.084972,17.1770833 508.824555,17.90625 L508.824555,17.90625 L511.019867,18.40625 C511.191742,17.984375 511.50294,17.6002604 511.953461,17.2539062 C512.403982,16.9075521 513.022472,16.734375 513.80893,16.734375 C514.564138,16.734375 515.133149,16.921875 515.515961,17.296875 C515.898774,17.671875 516.09018,18.2005208 516.09018,18.8828125 L516.09018,18.8828125 L516.09018,18.9375 C516.09018,19.21875 515.988617,19.421875 515.785492,19.546875 C515.582367,19.671875 515.256847,19.7617188 514.80893,19.8164062 C514.361013,19.8710938 513.77768,19.9401042 513.05893,20.0234375 C512.491222,20.0911458 511.93393,20.1901042 511.387055,20.3203125 C510.84018,20.4505208 510.345388,20.6432292 509.90268,20.8984375 C509.459972,21.1536458 509.108409,21.5 508.847992,21.9375 C508.587576,22.375 508.457367,22.9322917 508.457367,23.609375 C508.457367,24.3958333 508.635753,25.0598958 508.992524,25.6015625 C509.349294,26.1432292 509.834972,26.5559896 510.449555,26.8398438 C511.064138,27.1236979 511.751638,27.265625 512.512055,27.265625 Z M513.019867,25.390625 C512.358409,25.390625 511.814138,25.2434896 511.387055,24.9492188 C510.959972,24.6549479 510.74643,24.21875 510.74643,23.640625 C510.74643,23.2239583 510.857107,22.8893229 511.078461,22.6367188 C511.299815,22.3841146 511.59669,22.1901042 511.969086,22.0546875 C512.341482,21.9192708 512.754242,21.8229167 513.207367,21.765625 C513.400076,21.7395833 513.639659,21.7070312 513.926117,21.6679688 C514.212576,21.6289062 514.506847,21.5846354 514.80893,21.5351562 C515.111013,21.4856771 515.380544,21.4257812 515.617524,21.3554688 C515.854503,21.2851562 516.014659,21.2083333 516.097992,21.125 L516.097992,21.125 L516.097992,22.671875 C516.097992,23.1458333 515.976899,23.5898438 515.734711,24.0039062 C515.492524,24.4179688 515.140961,24.7526042 514.680024,25.0078125 C514.219086,25.2630208 513.665701,25.390625 513.019867,25.390625 Z M523.251343,27 L523.251343,11 L520.915405,11 L520.915405,27 L523.251343,27 Z M528.096889,27 L528.096889,11 L525.760952,11 L525.760952,27 L528.096889,27 Z M531.786186,13.1484375 C532.192436,13.1484375 532.540092,13.0117188 532.829154,12.7382812 C533.118217,12.4648438 533.262748,12.1380208 533.262748,11.7578125 C533.262748,11.3723958 533.118217,11.0429688 532.829154,10.7695312 C532.540092,10.4960938 532.192436,10.359375 531.786186,10.359375 C531.379936,10.359375 531.032279,10.4960938 530.743217,10.7695312 C530.454154,11.0429688 530.309623,11.3723958 530.309623,11.7578125 C530.309623,12.1380208 530.454154,12.4648438 530.743217,12.7382812 C531.032279,13.0117188 531.379936,13.1484375 531.786186,13.1484375 Z M532.942436,27 L532.942436,15 L530.606498,15 L530.606498,27 L532.942436,27 Z M540.623919,27.2421875 C541.498919,27.2421875 542.278867,27.1080729 542.963763,26.8398438 C543.648659,26.5716146 544.218971,26.1940104 544.674701,25.7070312 C545.13043,25.2200521 545.446836,24.6510417 545.623919,24 L545.623919,24 L543.412982,23.6015625 C543.272357,23.9765625 543.069232,24.2916667 542.803607,24.546875 C542.537982,24.8020833 542.222878,24.9934896 541.858294,25.1210938 C541.493711,25.2486979 541.090065,25.3125 540.647357,25.3125 C539.965065,25.3125 539.368711,25.1653646 538.858294,24.8710938 C538.347878,24.5768229 537.950742,24.1484375 537.666888,23.5859375 C537.383034,23.0234375 537.241107,22.3411458 537.241107,21.5390625 L537.244,21.704 L545.772357,21.703125 L545.772357,20.875 C545.772357,19.7864583 545.626524,18.8606771 545.334857,18.0976562 C545.04319,17.3346354 544.644753,16.7135417 544.139544,16.234375 C543.634336,15.7552083 543.064024,15.4036458 542.428607,15.1796875 C541.79319,14.9557292 541.13694,14.84375 540.459857,14.84375 C539.345274,14.84375 538.372617,15.1067708 537.541888,15.6328125 C536.711159,16.1588542 536.065326,16.890625 535.604388,17.828125 C535.143451,18.765625 534.912982,19.8489583 534.912982,21.078125 C534.912982,22.3229167 535.143451,23.4075521 535.604388,24.3320312 C536.065326,25.2565104 536.721576,25.9726562 537.573138,26.4804688 C538.424701,26.9882812 539.441628,27.2421875 540.623919,27.2421875 Z M537.249159,19.9178093 C537.281365,19.4149394 537.410192,18.9436384 537.635638,18.5039062 C537.898659,17.9908854 538.273659,17.5742188 538.760638,17.2539062 C539.247617,16.9335938 539.819232,16.7734375 540.475482,16.7734375 C541.079649,16.7734375 541.606992,16.9114583 542.057513,17.1875 C542.508034,17.4635417 542.858294,17.8398438 543.108294,18.3164062 C543.358294,18.7929688 543.483294,19.3385417 543.483294,19.953125 L543.483294,19.953125 L537.248,19.954 L537.249159,19.9178093 Z" id="withLydiaHallie" fill-opacity="0.5" fill="#000000" fill-rule="nonzero"></path>
                <path d="M41.0625,54.265625 C41.7239583,54.265625 42.2916667,54.1692708 42.765625,53.9765625 C43.2395833,53.7838542 43.6276042,53.5416667 43.9296875,53.25 C44.2317708,52.9583333 44.4583333,52.6614583 44.609375,52.359375 L44.609375,52.359375 L44.703125,52.359375 L44.703125,54 L46.984375,54 L46.984375,46.03125 C46.984375,45.15625 46.8333333,44.4440104 46.53125,43.8945312 C46.2291667,43.3450521 45.8424479,42.921875 45.3710938,42.625 C44.8997396,42.328125 44.3945312,42.1236979 43.8554688,42.0117188 C43.3164062,41.8997396 42.8072917,41.84375 42.328125,41.84375 C41.6041667,41.84375 40.9140625,41.9466146 40.2578125,42.1523438 C39.6015625,42.3580729 39.0221354,42.6861979 38.5195312,43.1367188 C38.0169271,43.5872396 37.6354167,44.1770833 37.375,44.90625 L37.375,44.90625 L39.5703125,45.40625 C39.7421875,44.984375 40.0533854,44.6002604 40.5039062,44.2539062 C40.9544271,43.9075521 41.5729167,43.734375 42.359375,43.734375 C43.1145833,43.734375 43.6835938,43.921875 44.0664062,44.296875 C44.4492188,44.671875 44.640625,45.2005208 44.640625,45.8828125 L44.640625,45.8828125 L44.640625,45.9375 C44.640625,46.21875 44.5390625,46.421875 44.3359375,46.546875 C44.1328125,46.671875 43.8072917,46.7617188 43.359375,46.8164062 C42.9114583,46.8710938 42.328125,46.9401042 41.609375,47.0234375 C41.0416667,47.0911458 40.484375,47.1901042 39.9375,47.3203125 C39.390625,47.4505208 38.8958333,47.6432292 38.453125,47.8984375 C38.0104167,48.1536458 37.6588542,48.5 37.3984375,48.9375 C37.1380208,49.375 37.0078125,49.9322917 37.0078125,50.609375 C37.0078125,51.3958333 37.1861979,52.0598958 37.5429688,52.6015625 C37.8997396,53.1432292 38.3854167,53.5559896 39,53.8398438 C39.6145833,54.1236979 40.3020833,54.265625 41.0625,54.265625 Z M41.5703125,52.390625 C40.9088542,52.390625 40.3645833,52.2434896 39.9375,51.9492188 C39.5104167,51.6549479 39.296875,51.21875 39.296875,50.640625 C39.296875,50.2239583 39.4075521,49.8893229 39.6289062,49.6367188 C39.8502604,49.3841146 40.1471354,49.1901042 40.5195312,49.0546875 C40.8919271,48.9192708 41.3046875,48.8229167 41.7578125,48.765625 C41.9505208,48.7395833 42.1901042,48.7070312 42.4765625,48.6679688 C42.7630208,48.6289062 43.0572917,48.5846354 43.359375,48.5351562 C43.6614583,48.4856771 43.9309896,48.4257812 44.1679688,48.3554688 C44.4049479,48.2851562 44.5651042,48.2083333 44.6484375,48.125 L44.6484375,48.125 L44.6484375,49.671875 C44.6484375,50.1458333 44.5273438,50.5898438 44.2851562,51.0039062 C44.0429688,51.4179688 43.6914062,51.7526042 43.2304688,52.0078125 C42.7695312,52.2630208 42.2161458,52.390625 41.5703125,52.390625 Z M51.801788,54 L51.801788,46.875 C51.801788,46.2395833 51.9228817,45.6966146 52.1650692,45.2460938 C52.4072567,44.7955729 52.7379859,44.453125 53.1572567,44.21875 C53.5765276,43.984375 54.0569963,43.8671875 54.598663,43.8671875 C55.3903296,43.8671875 56.0127255,44.1132812 56.4658505,44.6054688 C56.9189755,45.0976562 57.145538,45.7786458 57.145538,46.6484375 L57.145538,46.6484375 L57.145538,54 L59.4814755,54 L59.4814755,46.3671875 C59.4814755,45.3776042 59.3122046,44.546875 58.973663,43.875 C58.6351213,43.203125 58.1585588,42.6966146 57.5439755,42.3554688 C56.9293921,42.0143229 56.2132463,41.84375 55.395538,41.84375 C54.4944963,41.84375 53.7484026,42.0364583 53.1572567,42.421875 C52.5661109,42.8072917 52.1325171,43.3177083 51.8564755,43.953125 L51.8564755,43.953125 L51.708038,43.953125 L51.708038,42 L49.4658505,42 L49.4658505,54 L51.801788,54 Z M66.4723351,54.234375 C67.2015018,54.234375 67.7952518,54.1119792 68.2535851,53.8671875 C68.7119184,53.6223958 69.0725955,53.3359375 69.3356163,53.0078125 C69.5986372,52.6796875 69.8004601,52.3880208 69.9410851,52.1328125 L69.9410851,52.1328125 L70.1363976,52.1328125 L70.1363976,54 L72.4176476,54 L72.4176476,38 L70.0817101,38 L70.0817101,43.9453125 L69.9410851,43.9453125 C69.8004601,43.6953125 69.6038455,43.40625 69.3512413,43.078125 C69.0986372,42.75 68.7444705,42.4622396 68.2887413,42.2148438 C67.8330122,41.9674479 67.2327518,41.84375 66.4879601,41.84375 C65.5244184,41.84375 64.6624393,42.0885417 63.9020226,42.578125 C63.1416059,43.0677083 62.5439497,43.7734375 62.1090538,44.6953125 C61.674158,45.6171875 61.4567101,46.7265625 61.4567101,48.0234375 C61.4567101,49.3203125 61.6715538,50.4309896 62.1012413,51.3554688 C62.5309288,52.2799479 63.1246788,52.9908854 63.8824913,53.4882812 C64.6403038,53.9856771 65.5035851,54.234375 66.4723351,54.234375 Z M66.9879601,52.2421875 C66.2952518,52.2421875 65.7132205,52.0559896 65.2418663,51.6835938 C64.7705122,51.3111979 64.4150434,50.8046875 64.1754601,50.1640625 C63.9358768,49.5234375 63.8160851,48.8020833 63.8160851,48 C63.8160851,47.2083333 63.9345747,46.4973958 64.1715538,45.8671875 C64.408533,45.2369792 64.7613976,44.7395833 65.2301476,44.375 C65.6988976,44.0104167 66.2848351,43.828125 66.9879601,43.828125 C67.6702518,43.828125 68.2431684,44.0026042 68.7067101,44.3515625 C69.1702518,44.7005208 69.5218143,45.1875 69.7613976,45.8125 C70.0009809,46.4375 70.1207726,47.1666667 70.1207726,48 C70.1207726,48.84375 69.9996788,49.5833333 69.7574913,50.21875 C69.5153038,50.8541667 69.1611372,51.3502604 68.6949913,51.7070312 C68.2288455,52.0638021 67.6598351,52.2421875 66.9879601,52.2421875 Z M81.8477559,54 L83.313,49.766 L89.564,49.766 L91.0274434,54 L93.5899434,54 L87.8321309,38 L85.0430684,38 L79.2852559,54 L81.8477559,54 Z M88.863,47.735 L84.016,47.735 L86.3790059,40.90625 L86.5040059,40.90625 L88.863,47.735 Z M99.3839437,54.234375 C100.11311,54.234375 100.70686,54.1119792 101.165194,53.8671875 C101.623527,53.6223958 101.984204,53.3359375 102.247225,53.0078125 C102.510246,52.6796875 102.712069,52.3880208 102.852694,52.1328125 L102.852694,52.1328125 L103.048006,52.1328125 L103.048006,54 L105.329256,54 L105.329256,38 L102.993319,38 L102.993319,43.9453125 L102.852694,43.9453125 C102.712069,43.6953125 102.515454,43.40625 102.26285,43.078125 C102.010246,42.75 101.656079,42.4622396 101.20035,42.2148438 C100.744621,41.9674479 100.14436,41.84375 99.3995687,41.84375 C98.436027,41.84375 97.5740478,42.0885417 96.8136312,42.578125 C96.0532145,43.0677083 95.4555582,43.7734375 95.0206624,44.6953125 C94.5857666,45.6171875 94.3683187,46.7265625 94.3683187,48.0234375 C94.3683187,49.3203125 94.5831624,50.4309896 95.0128499,51.3554688 C95.4425374,52.2799479 96.0362874,52.9908854 96.7940999,53.4882812 C97.5519124,53.9856771 98.4151937,54.234375 99.3839437,54.234375 Z M99.8995687,52.2421875 C99.2068603,52.2421875 98.6248291,52.0559896 98.1534749,51.6835938 C97.6821207,51.3111979 97.326652,50.8046875 97.0870687,50.1640625 C96.8474853,49.5234375 96.7276937,48.8020833 96.7276937,48 C96.7276937,47.2083333 96.8461832,46.4973958 97.0831624,45.8671875 C97.3201416,45.2369792 97.6730062,44.7395833 98.1417562,44.375 C98.6105062,44.0104167 99.1964437,43.828125 99.8995687,43.828125 C100.58186,43.828125 101.154777,44.0026042 101.618319,44.3515625 C102.08186,44.7005208 102.433423,45.1875 102.673006,45.8125 C102.912589,46.4375 103.032381,47.1666667 103.032381,48 C103.032381,48.84375 102.911287,49.5833333 102.6691,50.21875 C102.426912,50.8541667 102.072746,51.3502604 101.6066,51.7070312 C101.140454,52.0638021 100.571444,52.2421875 99.8995687,52.2421875 Z M112.516981,54.234375 C113.246148,54.234375 113.839898,54.1119792 114.298231,53.8671875 C114.756564,53.6223958 115.117241,53.3359375 115.380262,53.0078125 C115.643283,52.6796875 115.845106,52.3880208 115.985731,52.1328125 L115.985731,52.1328125 L116.181043,52.1328125 L116.181043,54 L118.462293,54 L118.462293,38 L116.126356,38 L116.126356,43.9453125 L115.985731,43.9453125 C115.845106,43.6953125 115.648491,43.40625 115.395887,43.078125 C115.143283,42.75 114.789116,42.4622396 114.333387,42.2148438 C113.877658,41.9674479 113.277398,41.84375 112.532606,41.84375 C111.569064,41.84375 110.707085,42.0885417 109.946668,42.578125 C109.186252,43.0677083 108.588595,43.7734375 108.1537,44.6953125 C107.718804,45.6171875 107.501356,46.7265625 107.501356,48.0234375 C107.501356,49.3203125 107.7162,50.4309896 108.145887,51.3554688 C108.575575,52.2799479 109.169325,52.9908854 109.927137,53.4882812 C110.68495,53.9856771 111.548231,54.234375 112.516981,54.234375 Z M113.032606,52.2421875 C112.339898,52.2421875 111.757866,52.0559896 111.286512,51.6835938 C110.815158,51.3111979 110.459689,50.8046875 110.220106,50.1640625 C109.980523,49.5234375 109.860731,48.8020833 109.860731,48 C109.860731,47.2083333 109.97922,46.4973958 110.2162,45.8671875 C110.453179,45.2369792 110.806043,44.7395833 111.274793,44.375 C111.743543,44.0104167 112.329481,43.828125 113.032606,43.828125 C113.714898,43.828125 114.287814,44.0026042 114.751356,44.3515625 C115.214898,44.7005208 115.56646,45.1875 115.806043,45.8125 C116.045627,46.4375 116.165418,47.1666667 116.165418,48 C116.165418,48.84375 116.044325,49.5833333 115.802137,50.21875 C115.55995,50.8541667 115.205783,51.3502604 114.739637,51.7070312 C114.273491,52.0638021 113.704481,52.2421875 113.032606,52.2421875 Z M122.634393,58.46875 C123.280226,58.46875 123.847935,58.359375 124.337518,58.140625 C124.827101,57.921875 125.248976,57.5989583 125.603143,57.171875 C125.95731,56.7447917 126.248976,56.2213542 126.478143,55.6015625 L126.478143,55.6015625 L131.439081,42.0234375 L128.915643,42 L125.876581,51.3125 L125.751581,51.3125 L122.712518,42 L120.212518,42 L124.603143,54.15625 L124.314081,54.953125 C124.017206,55.7291667 123.65132,56.1914062 123.216424,56.3398438 C122.781528,56.4882812 122.243768,56.4739583 121.603143,56.296875 L121.603143,56.296875 L121.040643,58.2109375 C121.181268,58.2734375 121.39481,58.3320312 121.681268,58.3867188 C121.967726,58.4414062 122.285435,58.46875 122.634393,58.46875 Z M145.081695,54.21875 C146.461903,54.21875 147.694976,53.8893229 148.780914,53.2304688 C149.866851,52.5716146 150.72232,51.6289062 151.34732,50.4023438 C151.97232,49.1757812 152.28482,47.7083333 152.28482,46 C152.28482,44.2916667 151.97232,42.8242188 151.34732,41.5976562 C150.72232,40.3710938 149.866851,39.4283854 148.780914,38.7695312 C147.694976,38.1106771 146.461903,37.78125 145.081695,37.78125 C143.696278,37.78125 142.460601,38.1106771 141.374664,38.7695312 C140.288726,39.4283854 139.433258,40.3710938 138.808258,41.5976562 C138.183258,42.8242188 137.870758,44.2916667 137.870758,46 C137.870758,47.703125 138.183258,49.1692708 138.808258,50.3984375 C139.433258,51.6276042 140.288726,52.5716146 141.374664,53.2304688 C142.460601,53.8893229 143.696278,54.21875 145.081695,54.21875 Z M145.081695,52.015625 C144.15982,52.015625 143.336903,51.7851562 142.612945,51.3242188 C141.888987,50.8632812 141.317372,50.1861979 140.898101,49.2929688 C140.478831,48.3997396 140.269195,47.3020833 140.269195,46 C140.269195,44.6979167 140.478831,43.6002604 140.898101,42.7070312 C141.317372,41.8138021 141.888987,41.1367188 142.612945,40.6757812 C143.336903,40.2148438 144.15982,39.984375 145.081695,39.984375 C145.998362,39.984375 146.819976,40.2148438 147.546539,40.6757812 C148.273101,41.1367188 148.846018,41.8138021 149.265289,42.7070312 C149.68456,43.6002604 149.894195,44.6979167 149.894195,46 C149.894195,47.3020833 149.68456,48.3997396 149.265289,49.2929688 C148.846018,50.1861979 148.273101,50.8632812 147.546539,51.3242188 C146.819976,51.7851562 145.998362,52.015625 145.081695,52.015625 Z M158.789735,54.2421875 C159.758485,54.2421875 160.61135,54.0833333 161.348329,53.765625 C162.085308,53.4479167 162.660829,53.0091146 163.074891,52.4492188 C163.488954,51.8893229 163.695985,51.25 163.695985,50.53125 C163.695985,49.6822917 163.425152,48.9921875 162.883485,48.4609375 C162.341818,47.9296875 161.518902,47.5364583 160.414735,47.28125 L160.414735,47.28125 L158.508485,46.84375 C157.847027,46.6875 157.36786,46.4869792 157.070985,46.2421875 C156.77411,45.9973958 156.625673,45.6744792 156.625673,45.2734375 C156.625673,44.8098958 156.847027,44.4309896 157.289735,44.1367188 C157.732443,43.8424479 158.284527,43.6953125 158.945985,43.6953125 C159.43036,43.6953125 159.834006,43.7734375 160.156923,43.9296875 C160.479839,44.0859375 160.73635,44.2864583 160.926454,44.53125 C161.116558,44.7760417 161.255881,45.0338542 161.344423,45.3046875 L161.344423,45.3046875 L163.46161,44.9296875 C163.222027,43.9921875 162.729839,43.2434896 161.985048,42.6835938 C161.240256,42.1236979 160.219423,41.84375 158.922548,41.84375 C158.021506,41.84375 157.222027,41.9934896 156.52411,42.2929688 C155.826193,42.5924479 155.279318,43.0078125 154.883485,43.5390625 C154.487652,44.0703125 154.289735,44.6901042 154.289735,45.3984375 C154.289735,46.2526042 154.556662,46.9583333 155.090516,47.515625 C155.62437,48.0729167 156.451193,48.4791667 157.570985,48.734375 L157.570985,48.734375 L159.602235,49.1796875 C160.175152,49.3098958 160.600933,49.5026042 160.879579,49.7578125 C161.158225,50.0130208 161.297548,50.328125 161.297548,50.703125 C161.297548,51.1666667 161.068381,51.5585938 160.610048,51.8789062 C160.151714,52.1992188 159.539735,52.359375 158.77411,52.359375 C158.070985,52.359375 157.500673,52.2096354 157.063173,51.9101562 C156.625673,51.6106771 156.33661,51.1666667 156.195985,50.578125 L156.195985,50.578125 L153.938173,50.921875 C154.130881,51.984375 154.651714,52.8033854 155.500673,53.3789062 C156.349631,53.9544271 157.445985,54.2421875 158.789735,54.2421875 Z M167.963408,54 L167.963408,46.6015625 C167.963408,46.0598958 168.07669,45.5833333 168.303252,45.171875 C168.529815,44.7604167 168.829294,44.4388021 169.20169,44.2070312 C169.574085,43.9752604 169.981637,43.859375 170.424346,43.859375 C171.075387,43.859375 171.604033,44.0572917 172.010283,44.453125 C172.416533,44.8489583 172.619658,45.3723958 172.619658,46.0234375 L172.619658,46.0234375 L172.619658,54 L174.947783,54 L174.947783,46.3515625 C174.947783,45.6223958 175.158721,45.0247396 175.580596,44.5585938 C176.002471,44.0924479 176.593617,43.859375 177.354033,43.859375 C177.968617,43.859375 178.497262,44.0416667 178.939971,44.40625 C179.382679,44.7708333 179.604033,45.359375 179.604033,46.171875 L179.604033,46.171875 L179.604033,54 L181.939971,54 L181.939971,45.953125 C181.939971,44.578125 181.594919,43.5494792 180.904815,42.8671875 C180.21471,42.1848958 179.325387,41.84375 178.236846,41.84375 C177.372262,41.84375 176.627471,42.0351562 176.002471,42.4179688 C175.377471,42.8007812 174.921742,43.3125 174.635283,43.953125 L174.635283,43.953125 L174.510283,43.953125 C174.249867,43.296875 173.847523,42.78125 173.303252,42.40625 C172.758981,42.03125 172.085804,41.84375 171.283721,41.84375 C170.492054,41.84375 169.812367,42.0299479 169.244658,42.4023438 C168.67695,42.7747396 168.268096,43.2916667 168.018096,43.953125 L168.018096,43.953125 L167.869658,43.953125 L167.869658,42 L165.627471,42 L165.627471,54 L167.963408,54 Z M187.927708,54.265625 C188.589166,54.265625 189.156875,54.1692708 189.630833,53.9765625 C190.104791,53.7838542 190.492812,53.5416667 190.794896,53.25 C191.096979,52.9583333 191.323541,52.6614583 191.474583,52.359375 L191.474583,52.359375 L191.568333,52.359375 L191.568333,54 L193.849583,54 L193.849583,46.03125 C193.849583,45.15625 193.698541,44.4440104 193.396458,43.8945312 C193.094375,43.3450521 192.707656,42.921875 192.236302,42.625 C191.764948,42.328125 191.259739,42.1236979 190.720677,42.0117188 C190.181614,41.8997396 189.6725,41.84375 189.193333,41.84375 C188.469375,41.84375 187.779271,41.9466146 187.123021,42.1523438 C186.466771,42.3580729 185.887344,42.6861979 185.384739,43.1367188 C184.882135,43.5872396 184.500625,44.1770833 184.240208,44.90625 L184.240208,44.90625 L186.435521,45.40625 C186.607396,44.984375 186.918594,44.6002604 187.369114,44.2539062 C187.819635,43.9075521 188.438125,43.734375 189.224583,43.734375 C189.979791,43.734375 190.548802,43.921875 190.931614,44.296875 C191.314427,44.671875 191.505833,45.2005208 191.505833,45.8828125 L191.505833,45.8828125 L191.505833,45.9375 C191.505833,46.21875 191.404271,46.421875 191.201146,46.546875 C190.998021,46.671875 190.6725,46.7617188 190.224583,46.8164062 C189.776666,46.8710938 189.193333,46.9401042 188.474583,47.0234375 C187.906875,47.0911458 187.349583,47.1901042 186.802708,47.3203125 C186.255833,47.4505208 185.761041,47.6432292 185.318333,47.8984375 C184.875625,48.1536458 184.524062,48.5 184.263646,48.9375 C184.003229,49.375 183.873021,49.9322917 183.873021,50.609375 C183.873021,51.3958333 184.051406,52.0598958 184.408177,52.6015625 C184.764948,53.1432292 185.250625,53.5559896 185.865208,53.8398438 C186.479791,54.1236979 187.167291,54.265625 187.927708,54.265625 Z M188.435521,52.390625 C187.774062,52.390625 187.229791,52.2434896 186.802708,51.9492188 C186.375625,51.6549479 186.162083,51.21875 186.162083,50.640625 C186.162083,50.2239583 186.27276,49.8893229 186.494114,49.6367188 C186.715469,49.3841146 187.012344,49.1901042 187.384739,49.0546875 C187.757135,48.9192708 188.169896,48.8229167 188.623021,48.765625 C188.815729,48.7395833 189.055312,48.7070312 189.341771,48.6679688 C189.628229,48.6289062 189.9225,48.5846354 190.224583,48.5351562 C190.526666,48.4856771 190.796198,48.4257812 191.033177,48.3554688 C191.270156,48.2851562 191.430312,48.2083333 191.513646,48.125 L191.513646,48.125 L191.513646,49.671875 C191.513646,50.1458333 191.392552,50.5898438 191.150364,51.0039062 C190.908177,51.4179688 190.556614,51.7526042 190.095677,52.0078125 C189.634739,52.2630208 189.081354,52.390625 188.435521,52.390625 Z M198.666996,54 L198.666996,46.875 C198.666996,46.2395833 198.78809,45.6966146 199.030277,45.2460938 C199.272465,44.7955729 199.603194,44.453125 200.022465,44.21875 C200.441736,43.984375 200.922204,43.8671875 201.463871,43.8671875 C202.255538,43.8671875 202.877934,44.1132812 203.331059,44.6054688 C203.784184,45.0976562 204.010746,45.7786458 204.010746,46.6484375 L204.010746,46.6484375 L204.010746,54 L206.346684,54 L206.346684,46.3671875 C206.346684,45.3776042 206.177413,44.546875 205.838871,43.875 C205.500329,43.203125 205.023767,42.6966146 204.409184,42.3554688 C203.7946,42.0143229 203.078454,41.84375 202.260746,41.84375 C201.359704,41.84375 200.613611,42.0364583 200.022465,42.421875 C199.431319,42.8072917 198.997725,43.3177083 198.721684,43.953125 L198.721684,43.953125 L198.573246,43.953125 L198.573246,42 L196.331059,42 L196.331059,54 L198.666996,54 Z M210.025043,40.1484375 C210.431293,40.1484375 210.778949,40.0117188 211.068012,39.7382812 C211.357074,39.4648438 211.501606,39.1380208 211.501606,38.7578125 C211.501606,38.3723958 211.357074,38.0429688 211.068012,37.7695312 C210.778949,37.4960938 210.431293,37.359375 210.025043,37.359375 C209.618793,37.359375 209.271137,37.4960938 208.982074,37.7695312 C208.693012,38.0429688 208.548481,38.3723958 208.548481,38.7578125 C208.548481,39.1380208 208.693012,39.4648438 208.982074,39.7382812 C209.271137,40.0117188 209.618793,40.1484375 210.025043,40.1484375 Z M211.181293,54 L211.181293,42 L208.845356,42 L208.845356,54 L211.181293,54 Z" id="andAddyOsmani" fill-opacity="0.5" fill="#000000" fill-rule="nonzero"></path>
            </g>
        </g>
    </g>
</svg>